<svg xmlns="http://www.w3.org/2000/svg" xmlns:xlink="http://www.w3.org/1999/xlink" width="300" zoomAndPan="magnify" viewBox="0 0 224.87999 225" height="300" preserveAspectRatio="xMidYMid meet" version="1.0"><defs><clipPath id="7a2ba593ab"><path d="M 0 0.0585938 L 224.761719 0.0585938 L 224.761719 224.9375 L 0 224.9375 Z M 0 0.0585938 " clip-rule="nonzero"/></clipPath><clipPath id="c0ad4728dc"><path d="M 99 189 L 116 189 L 116 213.957031 L 99 213.957031 Z M 99 189 " clip-rule="nonzero"/></clipPath><clipPath id="4dde8558be"><path d="M 26 10.816406 L 101 10.816406 L 101 84 L 26 84 Z M 26 10.816406 " clip-rule="nonzero"/></clipPath><clipPath id="57bf0b8466"><path d="M 6.0625 131 L 96 131 L 96 199 L 6.0625 199 Z M 6.0625 131 " clip-rule="nonzero"/></clipPath><clipPath id="67bab6ba3f"><path d="M 113 10.816406 L 189 10.816406 L 189 84 L 113 84 Z M 113 10.816406 " clip-rule="nonzero"/></clipPath></defs><g clip-path="url(#7a2ba593ab)"><path fill="#ffffff" d="M 0 0.0585938 L 224.878906 0.0585938 L 224.878906 232.4375 L 0 232.4375 Z M 0 0.0585938 " fill-opacity="1" fill-rule="nonzero"/><path fill="#ffffff" d="M 0 0.0585938 L 224.878906 0.0585938 L 224.878906 224.941406 L 0 224.941406 Z M 0 0.0585938 " fill-opacity="1" fill-rule="nonzero"/><path fill="#ffffff" d="M 0 0.0585938 L 224.878906 0.0585938 L 224.878906 224.941406 L 0 224.941406 Z M 0 0.0585938 " fill-opacity="1" fill-rule="nonzero"/></g><path fill="#da0921" d="M 133.1875 43.003906 C 132.925781 43 132.667969 43.039062 132.417969 43.128906 C 132.167969 43.21875 131.941406 43.347656 131.738281 43.515625 C 131.535156 43.683594 131.367188 43.882812 131.234375 44.113281 C 131.105469 44.34375 131.015625 44.585938 130.972656 44.847656 L 123.949219 47.0625 C 124.117188 44.691406 124.488281 42.355469 125.058594 40.050781 L 126.167969 40.050781 C 126.429688 40.003906 126.671875 39.917969 126.902344 39.785156 C 127.132812 39.65625 127.332031 39.488281 127.5 39.285156 C 127.671875 39.082031 127.800781 38.855469 127.886719 38.605469 C 127.976562 38.355469 128.019531 38.101562 128.015625 37.835938 C 128.015625 37.589844 127.96875 37.355469 127.875 37.128906 C 127.78125 36.902344 127.648438 36.703125 127.472656 36.53125 C 127.300781 36.359375 127.101562 36.222656 126.875 36.128906 C 126.648438 36.035156 126.414062 35.988281 126.167969 35.988281 C 125.902344 35.988281 125.644531 36.027344 125.394531 36.117188 C 125.148438 36.207031 124.921875 36.332031 124.71875 36.503906 C 124.511719 36.671875 124.347656 36.871094 124.214844 37.101562 C 124.082031 37.328125 123.996094 37.574219 123.949219 37.835938 C 123.949219 38.203125 124.320312 38.574219 124.320312 38.941406 L 118.039062 42.265625 C 118.039062 42.632812 117.667969 38.574219 117.296875 35.621094 C 117.5625 35.625 117.820312 35.582031 118.070312 35.496094 C 118.320312 35.40625 118.546875 35.277344 118.75 35.109375 C 118.953125 34.9375 119.121094 34.738281 119.25 34.511719 C 119.382812 34.28125 119.472656 34.035156 119.515625 33.777344 C 119.515625 33.480469 119.460938 33.199219 119.347656 32.929688 C 119.234375 32.65625 119.074219 32.417969 118.867188 32.210938 C 118.65625 32.003906 118.417969 31.84375 118.148438 31.730469 C 117.875 31.617188 117.59375 31.5625 117.296875 31.5625 L 116.929688 31.5625 L 115.449219 32.667969 L 115.449219 33.777344 C 115.449219 34.390625 115.695312 34.882812 116.191406 35.253906 L 111.753906 40.417969 C 111.753906 40.417969 109.90625 37.097656 108.058594 34.515625 C 108.269531 34.472656 108.46875 34.394531 108.652344 34.28125 C 108.839844 34.167969 108.996094 34.027344 109.132812 33.859375 C 109.269531 33.691406 109.371094 33.503906 109.441406 33.300781 C 109.507812 33.09375 109.542969 32.882812 109.539062 32.667969 C 109.492188 32.40625 109.40625 32.164062 109.273438 31.933594 C 109.140625 31.703125 108.972656 31.503906 108.769531 31.335938 C 108.566406 31.167969 108.339844 31.039062 108.089844 30.949219 C 107.84375 30.863281 107.585938 30.820312 107.320312 30.824219 C 107.074219 30.824219 106.839844 30.871094 106.613281 30.964844 C 106.386719 31.058594 106.1875 31.191406 106.015625 31.363281 C 105.839844 31.535156 105.707031 31.734375 105.613281 31.960938 C 105.519531 32.1875 105.472656 32.421875 105.472656 32.667969 C 105.472656 33.777344 105.84375 34.515625 106.582031 34.515625 L 102.886719 40.417969 L 98.449219 35.621094 C 99.191406 35.253906 99.558594 34.882812 99.558594 34.144531 L 99.558594 33.039062 L 98.082031 31.929688 L 97.34375 31.929688 C 97.082031 31.972656 96.835938 32.0625 96.605469 32.195312 C 96.378906 32.324219 96.179688 32.492188 96.007812 32.695312 C 95.839844 32.898438 95.710938 33.125 95.621094 33.375 C 95.535156 33.625 95.492188 33.878906 95.496094 34.144531 C 95.496094 34.390625 95.542969 34.625 95.636719 34.851562 C 95.730469 35.078125 95.863281 35.277344 96.035156 35.449219 C 96.210938 35.621094 96.410156 35.757812 96.636719 35.851562 C 96.863281 35.941406 97.097656 35.988281 97.34375 35.988281 C 97.308594 38.226562 97.0625 40.441406 96.601562 42.632812 L 90.320312 39.3125 C 90.601562 38.996094 90.726562 38.625 90.691406 38.203125 C 90.691406 37.960938 90.644531 37.722656 90.550781 37.5 C 90.457031 37.273438 90.324219 37.074219 90.148438 36.898438 C 89.976562 36.726562 89.777344 36.59375 89.550781 36.5 C 89.324219 36.40625 89.085938 36.359375 88.84375 36.359375 C 88.578125 36.355469 88.320312 36.398438 88.070312 36.484375 C 87.820312 36.574219 87.59375 36.703125 87.390625 36.871094 C 87.1875 37.042969 87.019531 37.242188 86.890625 37.46875 C 86.757812 37.699219 86.667969 37.945312 86.625 38.203125 C 86.625 38.5 86.683594 38.78125 86.792969 39.050781 C 86.90625 39.324219 87.066406 39.5625 87.273438 39.769531 C 87.484375 39.976562 87.722656 40.136719 87.996094 40.25 C 88.265625 40.363281 88.546875 40.417969 88.84375 40.417969 L 89.953125 40.417969 L 91.058594 47.429688 L 83.667969 45.953125 C 83.667969 45.710938 83.621094 45.476562 83.527344 45.25 C 83.433594 45.023438 83.300781 44.824219 83.128906 44.648438 C 82.953125 44.476562 82.753906 44.34375 82.527344 44.25 C 82.300781 44.15625 82.066406 44.109375 81.820312 44.109375 C 81.554688 44.105469 81.300781 44.148438 81.050781 44.238281 C 80.800781 44.324219 80.574219 44.453125 80.371094 44.621094 C 80.167969 44.792969 80 44.992188 79.867188 45.21875 C 79.734375 45.449219 79.648438 45.695312 79.605469 45.953125 C 79.605469 46.25 79.660156 46.53125 79.773438 46.800781 C 79.886719 47.074219 80.046875 47.3125 80.253906 47.519531 C 80.460938 47.726562 80.699219 47.886719 80.972656 48 C 81.246094 48.113281 81.527344 48.167969 81.820312 48.167969 L 82.929688 48.167969 L 91.429688 56.289062 C 93.59375 54.289062 96.046875 52.75 98.789062 51.667969 C 101.527344 50.585938 104.371094 50.035156 107.320312 50.015625 C 110.320312 50.042969 113.222656 50.59375 116.023438 51.675781 C 118.820312 52.753906 121.339844 54.292969 123.582031 56.289062 L 131.710938 48.167969 L 133.1875 48.167969 C 133.449219 48.125 133.695312 48.039062 133.925781 47.90625 C 134.152344 47.773438 134.351562 47.605469 134.523438 47.402344 C 134.691406 47.199219 134.820312 46.972656 134.910156 46.726562 C 134.996094 46.476562 135.039062 46.21875 135.035156 45.953125 C 135.035156 45.710938 134.988281 45.476562 134.894531 45.25 C 134.800781 45.023438 134.667969 44.824219 134.496094 44.648438 C 134.320312 44.476562 134.121094 44.34375 133.894531 44.25 C 133.667969 44.15625 133.433594 44.109375 133.1875 44.109375 " fill-opacity="1" fill-rule="nonzero"/><g clip-path="url(#c0ad4728dc)"><path fill="#da0921" d="M 104.734375 189.519531 L 109.90625 189.519531 L 109.90625 195.058594 L 115.449219 195.058594 L 115.449219 200.59375 L 109.90625 200.59375 L 109.90625 213.878906 L 104.734375 213.878906 L 104.734375 200.59375 L 99.191406 200.59375 L 99.191406 195.058594 L 104.734375 195.058594 Z M 104.734375 189.519531 " fill-opacity="1" fill-rule="nonzero"/></g><g clip-path="url(#4dde8558be)"><path fill="#da0921" d="M 74.800781 33.40625 C 75.539062 28.609375 82.191406 29.714844 85.148438 31.191406 C 86.792969 31.933594 88.515625 32.304688 90.320312 32.304688 C 92.125 32.304688 93.851562 31.933594 95.496094 31.191406 C 106.949219 27.132812 97.710938 15.691406 92.539062 14.953125 C 87.363281 14.214844 92.167969 13.476562 94.386719 14.585938 L 97.710938 16.0625 C 94.386719 10.15625 90.320312 9.785156 88.105469 12 C 85.886719 14.214844 87.734375 14.214844 89.582031 15.691406 C 97.710938 22.703125 89.582031 25.289062 82.929688 25.289062 C 76.277344 25.289062 67.777344 30.085938 68.886719 43.003906 C 64.453125 34.144531 42.648438 30.085938 37.84375 48.167969 C 36.890625 52.476562 36.890625 56.78125 37.84375 61.085938 C 38.582031 62.933594 35.996094 65.515625 33.039062 65.882812 C 33.234375 66.136719 33.460938 66.355469 33.710938 66.550781 C 33.964844 66.742188 34.238281 66.902344 34.53125 67.023438 C 34.824219 67.148438 35.128906 67.230469 35.445312 67.273438 C 35.757812 67.320312 36.074219 67.320312 36.390625 67.285156 C 36.707031 67.246094 37.011719 67.171875 37.308594 67.054688 C 37.605469 66.9375 37.882812 66.789062 38.136719 66.601562 C 38.394531 66.414062 38.625 66.195312 38.824219 65.949219 C 39.023438 65.703125 39.191406 65.433594 39.324219 65.144531 C 38.953125 69.207031 39.691406 74.371094 33.410156 75.847656 C 18.996094 77.324219 29.714844 88.027344 42.28125 80.648438 C 42.949219 80.265625 43.582031 79.828125 44.175781 79.339844 C 44.773438 78.851562 45.320312 78.316406 45.828125 77.734375 C 46.332031 77.152344 46.785156 76.53125 47.183594 75.875 C 47.582031 75.214844 47.925781 74.527344 48.207031 73.8125 C 48.492188 73.097656 48.714844 72.363281 48.871094 71.609375 C 49.03125 70.855469 49.125 70.09375 49.15625 69.324219 C 49.1875 68.554688 49.152344 67.789062 49.050781 67.027344 C 48.953125 66.261719 48.789062 65.511719 48.5625 64.777344 C 62.605469 66.621094 61.867188 50.753906 58.910156 53.335938 C 55.953125 55.917969 47.824219 56.65625 46.34375 51.859375 C 59.648438 58.503906 60.019531 44.480469 55.953125 48.539062 C 51.886719 52.597656 43.019531 45.214844 50.777344 41.15625 C 47.824219 45.214844 48.929688 47.429688 51.148438 48.167969 C 53.367188 48.90625 57.429688 47.429688 55.214844 44.847656 C 52.996094 42.265625 58.171875 40.050781 61.496094 41.894531 C 64.820312 43.742188 65.191406 44.847656 68.515625 51.121094 C 68.683594 50.644531 68.890625 50.1875 69.140625 49.75 C 69.386719 49.308594 69.671875 48.898438 69.996094 48.507812 C 70.316406 48.121094 70.671875 47.761719 71.058594 47.4375 C 71.445312 47.113281 71.855469 46.824219 72.292969 46.574219 C 72.730469 46.320312 73.1875 46.109375 73.660156 45.9375 C 74.136719 45.769531 74.621094 45.640625 75.121094 45.554688 C 75.617188 45.472656 76.121094 45.433594 76.625 45.4375 C 77.128906 45.441406 77.628906 45.492188 78.125 45.585938 C 73.320312 38.203125 79.605469 35.988281 81.453125 38.574219 C 83.300781 41.15625 84.777344 39.3125 84.777344 37.097656 C 84.777344 34.882812 78.496094 30.085938 74.800781 33.40625 " fill-opacity="1" fill-rule="nonzero"/></g><path fill="#da0921" d="M 77.757812 76.585938 L 91.058594 67.730469 C 84.9375 63.46875 79.148438 58.792969 73.691406 53.707031 C 72.953125 52.96875 73.320312 52.230469 74.429688 52.96875 L 86.257812 62.195312 L 88.472656 62.195312 L 88.472656 57.027344 C 84.8125 56.699219 81.488281 55.46875 78.496094 53.335938 C 77.015625 51.492188 82.929688 52.230469 81.082031 49.644531 C 79.234375 47.0625 67.039062 51.121094 71.105469 54.8125 C 73.386719 57.117188 75.847656 59.210938 78.496094 61.085938 C 72.628906 58.445312 67.085938 55.246094 61.867188 51.492188 C 62.292969 53.3125 62.539062 55.15625 62.605469 57.027344 L 78.125 63.671875 C 78.863281 63.671875 78.496094 65.144531 78.125 65.144531 C 77.164062 64.410156 76.140625 63.777344 75.046875 63.253906 C 73.953125 62.730469 72.820312 62.328125 71.640625 62.039062 C 70.464844 61.753906 69.269531 61.59375 68.058594 61.558594 C 66.847656 61.519531 65.644531 61.609375 64.453125 61.824219 C 60.386719 62.933594 61.125 66.992188 64.082031 68.46875 C 67.039062 69.945312 62.605469 69.207031 60.386719 68.46875 C 61.125 73.265625 66.300781 71.421875 66.300781 72.160156 C 66.300781 72.898438 62.605469 72.898438 61.867188 72.527344 C 61.125 72.160156 67.777344 75.480469 67.777344 75.847656 C 67.777344 76.21875 66.300781 76.957031 65.5625 76.957031 C 65.820312 77.332031 66.132812 77.652344 66.503906 77.921875 C 66.871094 78.191406 67.273438 78.390625 67.707031 78.523438 C 68.144531 78.660156 68.589844 78.71875 69.042969 78.703125 C 69.5 78.6875 69.941406 78.597656 70.363281 78.433594 C 70.734375 78.433594 71.472656 78.433594 70.734375 78.800781 C 69.996094 79.171875 69.996094 79.539062 69.257812 79.539062 C 70.253906 79.816406 71.261719 79.886719 72.285156 79.761719 C 73.3125 79.632812 74.273438 79.3125 75.167969 78.800781 C 75.871094 78.058594 76.367188 77.199219 76.648438 76.21875 C 75.898438 76.851562 75.035156 77.21875 74.0625 77.324219 C 75.910156 75.847656 77.757812 72.527344 73.691406 70.3125 C 69.625 68.097656 73.320312 71.789062 72.582031 72.160156 L 71.84375 72.160156 C 72.214844 70.683594 72.582031 68.46875 70.363281 67.359375 C 68.148438 66.253906 69.996094 69.945312 69.257812 69.945312 L 68.886719 69.945312 C 69.257812 69.207031 70.734375 65.882812 68.148438 65.515625 C 65.5625 65.144531 68.148438 67.359375 66.300781 67.359375 C 61.125 61.457031 73.320312 61.824219 72.582031 64.40625 L 71.105469 65.144531 L 75.539062 70.3125 L 82.558594 67.359375 L 84.039062 69.207031 L 77.757812 72.160156 C 77.941406 73.632812 77.941406 75.109375 77.757812 76.585938 " fill-opacity="1" fill-rule="nonzero"/><path fill="#da0921" d="M 61.125 107.957031 C 61.96875 103.660156 63.199219 99.476562 64.820312 95.410156 L 61.125 93.195312 L 65.929688 93.195312 C 67.238281 89.585938 69.332031 86.507812 72.214844 83.96875 C 72.214844 83.597656 67.410156 83.230469 55.214844 86.183594 C 63.34375 83.230469 62.972656 78.0625 61.125 75.847656 C 59.277344 73.632812 52.625 76.21875 52.625 76.21875 C 52.640625 75.835938 52.746094 75.480469 52.941406 75.152344 C 53.140625 74.824219 53.402344 74.5625 53.734375 74.371094 C 55.953125 72.898438 58.539062 74.003906 58.171875 73.632812 C 57.847656 73.371094 57.496094 73.144531 57.125 72.957031 C 56.75 72.769531 56.359375 72.628906 55.953125 72.53125 C 55.542969 72.433594 55.132812 72.378906 54.714844 72.375 C 54.296875 72.371094 53.882812 72.414062 53.472656 72.5 C 53.0625 72.589844 52.671875 72.722656 52.292969 72.902344 C 51.914062 73.078125 51.558594 73.296875 51.230469 73.554688 C 50.898438 73.8125 50.605469 74.105469 50.339844 74.429688 C 50.078125 74.753906 49.855469 75.105469 49.671875 75.480469 C 48.191406 78.433594 50.777344 83.96875 55.582031 81.015625 C 54.105469 78.0625 55.953125 76.957031 57.429688 76.957031 C 57.625 77.027344 57.808594 77.121094 57.976562 77.234375 C 58.148438 77.351562 58.304688 77.484375 58.445312 77.632812 C 58.582031 77.785156 58.703125 77.953125 58.800781 78.132812 C 58.902344 78.3125 58.980469 78.503906 59.03125 78.699219 C 59.085938 78.898438 59.117188 79.101562 59.121094 79.308594 C 59.128906 79.511719 59.109375 79.714844 59.066406 79.917969 C 59.023438 80.121094 58.957031 80.3125 58.871094 80.5 C 58.78125 80.683594 58.671875 80.855469 58.539062 81.015625 C 55.953125 84.707031 49.300781 85.074219 43.757812 85.8125 C 28.238281 87.660156 20.84375 112.753906 44.867188 114.96875 C 37.476562 111.277344 37.476562 99.46875 45.605469 99.101562 C 53.734375 98.730469 52.625 105.003906 47.453125 106.480469 C 49.300781 105.003906 48.929688 101.683594 46.714844 101.683594 C 37.84375 101.316406 42.28125 117.921875 52.257812 111.648438 C 68.148438 100.207031 42.648438 82.125 35.996094 101.316406 C 34.886719 90.613281 58.910156 81.753906 61.125 107.957031 " fill-opacity="1" fill-rule="nonzero"/><path fill="#da0921" d="M 15.671875 151.136719 C 13.085938 146.710938 14.933594 139.328125 20.105469 139.328125 C 25.28125 139.328125 24.910156 146.710938 21.214844 145.972656 C 17.519531 145.234375 14.5625 147.816406 15.671875 151.136719 " fill-opacity="1" fill-rule="nonzero"/><path fill="#da0921" d="M 18.628906 130.101562 C 18.789062 129.542969 18.992188 129.003906 19.238281 128.480469 C 19.488281 127.957031 19.777344 127.457031 20.105469 126.980469 C 20.433594 126.503906 20.800781 126.058594 21.199219 125.640625 C 21.601562 125.222656 22.035156 124.839844 22.5 124.492188 C 22.964844 124.144531 23.453125 123.835938 23.964844 123.566406 C 24.480469 123.300781 25.011719 123.074219 25.5625 122.894531 C 26.113281 122.710938 26.675781 122.574219 27.246094 122.484375 C 27.820312 122.394531 28.394531 122.347656 28.976562 122.351562 C 29.675781 122.292969 30.371094 122.335938 31.058594 122.476562 C 31.746094 122.617188 32.402344 122.847656 33.023438 123.175781 C 33.644531 123.503906 34.210938 123.910156 34.714844 124.398438 C 35.222656 124.882812 35.648438 125.433594 35.996094 126.042969 C 41.171875 133.792969 31.5625 141.171875 25.28125 129.734375 C 23.800781 127.519531 21.214844 128.257812 18.628906 130.101562 " fill-opacity="1" fill-rule="nonzero"/><path fill="#da0921" d="M 14.933594 138.222656 C 14.878906 137.796875 14.867188 137.375 14.898438 136.949219 C 14.925781 136.523438 14.996094 136.105469 15.105469 135.691406 C 15.214844 135.28125 15.363281 134.882812 15.546875 134.5 C 15.734375 134.117188 15.957031 133.753906 16.210938 133.414062 C 16.46875 133.070312 16.753906 132.757812 17.070312 132.472656 C 17.386719 132.1875 17.726562 131.933594 18.09375 131.710938 C 18.457031 131.492188 18.84375 131.308594 19.242188 131.160156 C 19.644531 131.015625 20.054688 130.90625 20.476562 130.839844 C 20.875 130.6875 21.285156 130.609375 21.710938 130.601562 C 22.136719 130.589844 22.550781 130.652344 22.957031 130.789062 C 23.359375 130.921875 23.730469 131.121094 24.066406 131.382812 C 24.402344 131.644531 24.683594 131.957031 24.910156 132.316406 C 28.238281 136.375 22.324219 141.542969 19.367188 135.636719 C 16.410156 129.734375 16.042969 135.269531 14.933594 138.222656 " fill-opacity="1" fill-rule="nonzero"/><path fill="#da0921" d="M 48.929688 130.46875 C 48.660156 129.824219 48.296875 129.238281 47.84375 128.707031 C 47.386719 128.175781 46.859375 127.730469 46.261719 127.367188 C 45.667969 127 45.027344 126.738281 44.347656 126.574219 C 43.667969 126.410156 42.976562 126.355469 42.28125 126.410156 C 41.570312 126.464844 40.917969 126.6875 40.324219 127.082031 C 39.730469 127.476562 39.273438 127.992188 38.953125 128.625 C 37.84375 133.054688 43.019531 134.53125 44.128906 130.839844 C 45.234375 127.148438 47.082031 128.996094 48.929688 130.46875 " fill-opacity="1" fill-rule="nonzero"/><g clip-path="url(#57bf0b8466)"><path fill="#da0921" d="M 95.125 195.058594 C 100.667969 166.269531 74.429688 174.757812 64.453125 145.601562 C 63.875 147.628906 63.679688 149.695312 63.871094 151.792969 C 64.0625 153.894531 64.625 155.890625 65.5625 157.78125 C 64.820312 157.414062 64.453125 157.414062 64.082031 156.304688 C 61.148438 148.6875 59.300781 140.8125 58.539062 132.683594 C 57.429688 131.578125 52.257812 130.101562 52.625 133.054688 C 54.105469 142.648438 55.214844 147.816406 55.582031 151.136719 C 53.65625 145.695312 52.054688 140.160156 50.777344 134.53125 C 49.671875 130.101562 42.648438 130.46875 44.128906 136.007812 C 45.605469 141.542969 46.714844 142.648438 48.5625 147.078125 C 45.734375 143.53125 43.640625 139.59375 42.28125 135.269531 C 40.886719 135.554688 39.53125 135.433594 38.214844 134.898438 C 37.84375 134.53125 38.214844 136.007812 38.582031 138.222656 C 40.5 142.054688 42.964844 145.5 45.976562 148.554688 C 43.851562 147.121094 42 145.394531 40.421875 143.378906 C 38.84375 141.359375 37.617188 139.148438 36.734375 136.746094 C 35.554688 137.410156 34.285156 137.804688 32.933594 137.933594 C 31.582031 138.0625 30.261719 137.914062 28.976562 137.484375 C 31.191406 143.386719 35.996094 146.710938 41.539062 150.769531 C 42.988281 151.898438 44.34375 153.128906 45.605469 154.460938 C 38.582031 150.769531 31.191406 147.078125 26.757812 136.746094 C 26.390625 137.851562 25.648438 139.695312 23.800781 140.066406 C 24.394531 141.203125 24.757812 142.410156 24.886719 143.6875 C 25.011719 144.960938 24.898438 146.214844 24.539062 147.449219 C 27.867188 152.613281 39.691406 155.199219 44.867188 156.304688 C 42.875 156.359375 40.894531 156.222656 38.925781 155.898438 C 36.960938 155.570312 35.042969 155.058594 33.175781 154.363281 C 31.304688 153.667969 29.519531 152.800781 27.820312 151.761719 C 26.121094 150.722656 24.535156 149.53125 23.0625 148.1875 C 22.707031 147.917969 22.316406 147.722656 21.890625 147.597656 C 21.460938 147.472656 21.027344 147.425781 20.582031 147.457031 C 20.140625 147.488281 19.714844 147.597656 19.3125 147.78125 C 18.90625 147.964844 18.546875 148.214844 18.230469 148.527344 C 17.917969 148.84375 17.667969 149.203125 17.484375 149.605469 C 17.300781 150.011719 17.191406 150.433594 17.160156 150.875 C 17.128906 151.320312 17.175781 151.753906 17.300781 152.179688 C 17.425781 152.605469 17.621094 152.996094 17.890625 153.351562 C 21.214844 158.519531 28.976562 159.257812 44.128906 158.886719 C 44.128906 159.257812 10.128906 160.734375 7.171875 160.734375 C 4.214844 160.734375 6.433594 168.851562 11.605469 168.113281 C 18.011719 167.710938 24.296875 166.601562 30.453125 164.792969 C 32.671875 164.425781 23.0625 168.113281 14.195312 169.589844 C 14.195312 172.542969 20.476562 174.757812 26.019531 172.542969 C 31.5625 170.328125 42.648438 162.210938 47.453125 164.425781 C 44.328125 164.574219 41.496094 165.558594 38.953125 167.378906 L 26.019531 175.496094 C 32.671875 185.460938 38.953125 172.914062 49.300781 167.746094 L 52.996094 166.640625 C 23.800781 181.03125 49.300781 200.960938 57.429688 183.984375 C 47.453125 188.414062 43.757812 181.03125 48.5625 174.390625 C 45.605469 184.722656 54.472656 185.460938 58.171875 181.769531 C 47.453125 176.972656 56.691406 167.007812 64.820312 166.640625 C 72.953125 166.269531 74.429688 173.652344 70.363281 176.605469 C 66.300781 179.554688 73.691406 171.804688 68.886719 169.960938 C 68.589844 169.761719 68.273438 169.59375 67.945312 169.457031 C 67.613281 169.316406 67.273438 169.207031 66.925781 169.128906 C 66.578125 169.050781 66.222656 169.003906 65.863281 168.988281 C 65.507812 168.976562 65.152344 168.996094 64.796875 169.046875 C 64.441406 169.09375 64.09375 169.175781 63.753906 169.292969 C 63.417969 169.40625 63.089844 169.546875 62.777344 169.71875 C 62.460938 169.894531 62.167969 170.09375 61.890625 170.320312 C 61.613281 170.546875 61.359375 170.796875 61.125 171.066406 C 55.582031 175.867188 61.867188 190.257812 71.472656 185.460938 C 81.082031 180.664062 81.453125 179.925781 86.625 182.507812 C 83.941406 182.320312 81.324219 182.640625 78.765625 183.46875 C 76.210938 184.300781 73.902344 185.578125 71.84375 187.304688 C 68.886719 190.257812 71.84375 195.796875 77.757812 191.367188 C 83.667969 186.9375 94.753906 181.03125 92.167969 191.734375 C 91.429688 193.949219 86.625 195.425781 91.058594 197.640625 C 95.496094 199.855469 94.753906 196.902344 95.125 195.058594 " fill-opacity="1" fill-rule="nonzero"/></g><path fill="#da0921" d="M 100.296875 68.46875 C 100.65625 68.511719 100.996094 68.621094 101.316406 68.789062 C 101.636719 68.960938 101.914062 69.179688 102.152344 69.453125 C 102.394531 69.726562 102.574219 70.03125 102.699219 70.371094 C 102.828125 70.707031 102.886719 71.058594 102.886719 71.421875 C 102.886719 71.761719 102.820312 72.09375 102.6875 72.410156 C 102.558594 72.726562 102.371094 73.003906 102.128906 73.246094 C 101.886719 73.488281 101.605469 73.675781 101.289062 73.808594 C 100.972656 73.9375 100.640625 74.003906 100.300781 74.003906 C 99.957031 74.003906 99.625 73.9375 99.308594 73.808594 C 98.992188 73.675781 98.710938 73.488281 98.46875 73.246094 C 98.226562 73.003906 98.039062 72.726562 97.910156 72.410156 C 97.777344 72.09375 97.710938 71.761719 97.710938 71.421875 C 97.710938 71.058594 97.769531 70.707031 97.898438 70.371094 C 98.023438 70.03125 98.203125 69.726562 98.445312 69.453125 C 98.683594 69.179688 98.960938 68.960938 99.28125 68.789062 C 99.601562 68.621094 99.941406 68.511719 100.300781 68.46875 " fill-opacity="1" fill-rule="nonzero"/><path fill="#da0921" d="M 93.277344 70.683594 C 93.65625 70.722656 94.015625 70.824219 94.359375 70.988281 C 94.703125 71.152344 95.007812 71.367188 95.277344 71.636719 C 95.546875 71.90625 95.765625 72.210938 95.925781 72.554688 C 96.089844 72.898438 96.195312 73.257812 96.234375 73.632812 C 96.1875 73.992188 96.082031 74.332031 95.910156 74.652344 C 95.742188 74.972656 95.519531 75.25 95.246094 75.488281 C 94.976562 75.726562 94.667969 75.90625 94.328125 76.035156 C 93.988281 76.160156 93.640625 76.222656 93.277344 76.21875 C 92.933594 76.21875 92.605469 76.152344 92.289062 76.019531 C 91.96875 75.890625 91.691406 75.703125 91.449219 75.460938 C 91.207031 75.21875 91.019531 74.941406 90.886719 74.625 C 90.757812 74.308594 90.691406 73.976562 90.691406 73.632812 C 90.6875 73.273438 90.75 72.921875 90.875 72.582031 C 91 72.246094 91.183594 71.9375 91.421875 71.667969 C 91.660156 71.394531 91.9375 71.175781 92.257812 71.003906 C 92.578125 70.835938 92.917969 70.726562 93.277344 70.683594 " fill-opacity="1" fill-rule="nonzero"/><path fill="#da0921" d="M 86.996094 74.371094 C 87.339844 74.371094 87.667969 74.4375 87.984375 74.570312 C 88.300781 74.699219 88.582031 74.886719 88.824219 75.128906 C 89.066406 75.371094 89.253906 75.652344 89.386719 75.96875 C 89.515625 76.285156 89.582031 76.613281 89.582031 76.957031 C 89.582031 77.296875 89.515625 77.628906 89.386719 77.945312 C 89.253906 78.261719 89.066406 78.539062 88.824219 78.78125 C 88.582031 79.023438 88.300781 79.210938 87.984375 79.34375 C 87.667969 79.472656 87.339844 79.539062 86.996094 79.539062 C 86.652344 79.539062 86.320312 79.472656 86.003906 79.34375 C 85.6875 79.210938 85.410156 79.023438 85.164062 78.78125 C 84.921875 78.539062 84.734375 78.261719 84.605469 77.945312 C 84.472656 77.628906 84.40625 77.296875 84.40625 76.957031 C 84.40625 76.613281 84.472656 76.285156 84.605469 75.96875 C 84.734375 75.652344 84.921875 75.371094 85.164062 75.128906 C 85.410156 74.886719 85.6875 74.699219 86.003906 74.570312 C 86.320312 74.4375 86.652344 74.371094 86.996094 74.371094 " fill-opacity="1" fill-rule="nonzero"/><path fill="#da0921" d="M 81.453125 78.800781 C 81.792969 78.800781 82.125 78.867188 82.441406 79 C 82.757812 79.128906 83.039062 79.316406 83.28125 79.558594 C 83.523438 79.800781 83.710938 80.078125 83.839844 80.394531 C 83.972656 80.710938 84.039062 81.042969 84.039062 81.386719 C 84.042969 81.746094 83.980469 82.097656 83.855469 82.4375 C 83.726562 82.773438 83.546875 83.082031 83.308594 83.351562 C 83.070312 83.625 82.789062 83.84375 82.46875 84.015625 C 82.148438 84.183594 81.8125 84.292969 81.453125 84.335938 C 81.074219 84.296875 80.710938 84.195312 80.371094 84.03125 C 80.027344 83.867188 79.71875 83.652344 79.449219 83.382812 C 79.183594 83.113281 78.964844 82.808594 78.800781 82.464844 C 78.636719 82.125 78.535156 81.761719 78.496094 81.386719 C 78.539062 81.027344 78.648438 80.6875 78.816406 80.367188 C 78.988281 80.046875 79.210938 79.769531 79.480469 79.53125 C 79.753906 79.292969 80.058594 79.113281 80.398438 78.984375 C 80.738281 78.859375 81.089844 78.796875 81.453125 78.800781 " fill-opacity="1" fill-rule="nonzero"/><path fill="#da0921" d="M 76.648438 83.96875 C 77.007812 84.011719 77.347656 84.121094 77.664062 84.289062 C 77.984375 84.460938 78.265625 84.679688 78.503906 84.953125 C 78.742188 85.226562 78.921875 85.53125 79.050781 85.871094 C 79.175781 86.210938 79.238281 86.558594 79.234375 86.921875 C 79.234375 87.261719 79.167969 87.59375 79.039062 87.910156 C 78.90625 88.226562 78.71875 88.503906 78.476562 88.746094 C 78.234375 88.988281 77.953125 89.175781 77.636719 89.308594 C 77.320312 89.4375 76.992188 89.503906 76.648438 89.503906 C 76.304688 89.503906 75.972656 89.4375 75.65625 89.308594 C 75.339844 89.175781 75.0625 88.988281 74.820312 88.746094 C 74.574219 88.503906 74.390625 88.226562 74.257812 87.910156 C 74.125 87.59375 74.0625 87.261719 74.0625 86.921875 C 74.058594 86.558594 74.121094 86.210938 74.246094 85.871094 C 74.371094 85.53125 74.554688 85.226562 74.792969 84.953125 C 75.03125 84.679688 75.308594 84.460938 75.628906 84.289062 C 75.949219 84.121094 76.289062 84.011719 76.648438 83.96875 " fill-opacity="1" fill-rule="nonzero"/><path fill="#da0921" d="M 72.582031 90.242188 C 72.925781 90.242188 73.253906 90.308594 73.574219 90.4375 C 73.890625 90.570312 74.167969 90.757812 74.410156 91 C 74.652344 91.242188 74.839844 91.519531 74.972656 91.835938 C 75.105469 92.152344 75.167969 92.484375 75.167969 92.824219 C 75.167969 93.167969 75.105469 93.5 74.972656 93.816406 C 74.839844 94.132812 74.652344 94.410156 74.410156 94.652344 C 74.167969 94.894531 73.890625 95.082031 73.574219 95.210938 C 73.253906 95.34375 72.925781 95.410156 72.582031 95.410156 C 72.238281 95.410156 71.910156 95.34375 71.59375 95.210938 C 71.277344 95.082031 70.996094 94.894531 70.753906 94.652344 C 70.511719 94.410156 70.324219 94.132812 70.191406 93.816406 C 70.0625 93.5 69.996094 93.167969 69.996094 92.824219 C 69.996094 92.484375 70.0625 92.152344 70.191406 91.835938 C 70.324219 91.519531 70.511719 91.242188 70.753906 91 C 70.996094 90.757812 71.277344 90.570312 71.59375 90.4375 C 71.910156 90.308594 72.238281 90.242188 72.582031 90.242188 " fill-opacity="1" fill-rule="nonzero"/><path fill="#da0921" d="M 69.625 96.886719 C 69.96875 96.886719 70.300781 96.953125 70.617188 97.082031 C 70.933594 97.214844 71.210938 97.398438 71.457031 97.640625 C 71.699219 97.882812 71.886719 98.164062 72.015625 98.480469 C 72.148438 98.796875 72.214844 99.125 72.214844 99.46875 C 72.214844 99.8125 72.148438 100.140625 72.015625 100.457031 C 71.886719 100.773438 71.699219 101.054688 71.457031 101.296875 C 71.210938 101.539062 70.933594 101.726562 70.617188 101.855469 C 70.300781 101.988281 69.96875 102.050781 69.625 102.050781 C 69.28125 102.050781 68.953125 101.988281 68.636719 101.855469 C 68.320312 101.726562 68.039062 101.539062 67.796875 101.296875 C 67.554688 101.054688 67.367188 100.773438 67.234375 100.457031 C 67.105469 100.140625 67.039062 99.8125 67.039062 99.46875 C 67.039062 99.125 67.105469 98.796875 67.234375 98.480469 C 67.367188 98.164062 67.554688 97.882812 67.796875 97.640625 C 68.039062 97.398438 68.320312 97.214844 68.636719 97.082031 C 68.953125 96.953125 69.28125 96.886719 69.625 96.886719 " fill-opacity="1" fill-rule="nonzero"/><path fill="#da0921" d="M 67.410156 103.527344 C 67.769531 103.574219 68.109375 103.679688 68.425781 103.851562 C 68.746094 104.019531 69.027344 104.242188 69.265625 104.515625 C 69.503906 104.785156 69.683594 105.089844 69.8125 105.429688 C 69.9375 105.769531 70 106.121094 69.996094 106.480469 C 69.996094 106.824219 69.929688 107.152344 69.796875 107.46875 C 69.667969 107.785156 69.480469 108.066406 69.238281 108.308594 C 68.996094 108.550781 68.714844 108.738281 68.398438 108.867188 C 68.082031 109 67.75 109.066406 67.410156 109.066406 C 67.046875 109.066406 66.695312 109.007812 66.355469 108.878906 C 66.015625 108.753906 65.710938 108.574219 65.4375 108.335938 C 65.167969 108.097656 64.945312 107.816406 64.773438 107.5 C 64.605469 107.179688 64.496094 106.839844 64.453125 106.480469 C 64.492188 106.105469 64.59375 105.742188 64.757812 105.402344 C 64.921875 105.058594 65.140625 104.75 65.40625 104.484375 C 65.675781 104.214844 65.984375 104 66.328125 103.835938 C 66.667969 103.671875 67.03125 103.570312 67.410156 103.527344 " fill-opacity="1" fill-rule="nonzero"/><path fill="#da0921" d="M 65.929688 110.910156 C 66.273438 110.910156 66.605469 110.976562 66.921875 111.105469 C 67.238281 111.238281 67.515625 111.425781 67.761719 111.667969 C 68.003906 111.910156 68.1875 112.1875 68.320312 112.503906 C 68.453125 112.820312 68.515625 113.152344 68.515625 113.492188 C 68.515625 113.835938 68.453125 114.164062 68.320312 114.480469 C 68.1875 114.796875 68.003906 115.078125 67.761719 115.320312 C 67.515625 115.5625 67.238281 115.75 66.921875 115.878906 C 66.605469 116.011719 66.273438 116.078125 65.929688 116.078125 C 65.585938 116.078125 65.257812 116.011719 64.941406 115.878906 C 64.625 115.75 64.34375 115.5625 64.101562 115.320312 C 63.859375 115.078125 63.671875 114.796875 63.539062 114.480469 C 63.410156 114.164062 63.34375 113.835938 63.34375 113.492188 C 63.34375 113.152344 63.410156 112.820312 63.539062 112.503906 C 63.671875 112.1875 63.859375 111.910156 64.101562 111.667969 C 64.34375 111.425781 64.625 111.238281 64.941406 111.105469 C 65.257812 110.976562 65.585938 110.910156 65.929688 110.910156 " fill-opacity="1" fill-rule="nonzero"/><path fill="#da0921" d="M 100.296875 167.746094 C 100.65625 167.792969 100.996094 167.898438 101.316406 168.070312 C 101.636719 168.238281 101.914062 168.460938 102.152344 168.730469 C 102.394531 169.003906 102.574219 169.308594 102.699219 169.648438 C 102.828125 169.988281 102.886719 170.335938 102.886719 170.699219 C 102.886719 171.042969 102.820312 171.371094 102.6875 171.6875 C 102.558594 172.003906 102.371094 172.28125 102.128906 172.523438 C 101.886719 172.769531 101.605469 172.953125 101.289062 173.085938 C 100.972656 173.214844 100.640625 173.28125 100.300781 173.28125 C 99.957031 173.28125 99.625 173.214844 99.308594 173.085938 C 98.992188 172.953125 98.710938 172.769531 98.46875 172.523438 C 98.226562 172.28125 98.039062 172.003906 97.910156 171.6875 C 97.777344 171.371094 97.710938 171.042969 97.710938 170.699219 C 97.710938 170.335938 97.769531 169.988281 97.898438 169.648438 C 98.023438 169.308594 98.203125 169.003906 98.445312 168.730469 C 98.683594 168.460938 98.960938 168.238281 99.28125 168.070312 C 99.601562 167.898438 99.941406 167.792969 100.300781 167.746094 " fill-opacity="1" fill-rule="nonzero"/><path fill="#da0921" d="M 93.277344 165.53125 C 93.65625 165.570312 94.015625 165.671875 94.359375 165.835938 C 94.703125 166 95.007812 166.21875 95.277344 166.484375 C 95.546875 166.753906 95.761719 167.058594 95.925781 167.402344 C 96.089844 167.746094 96.195312 168.105469 96.234375 168.484375 C 96.1875 168.84375 96.082031 169.183594 95.910156 169.5 C 95.742188 169.820312 95.519531 170.097656 95.246094 170.335938 C 94.976562 170.574219 94.667969 170.757812 94.328125 170.882812 C 93.988281 171.007812 93.640625 171.070312 93.277344 171.066406 C 92.933594 171.066406 92.605469 171.003906 92.289062 170.871094 C 91.96875 170.738281 91.691406 170.554688 91.449219 170.3125 C 91.207031 170.070312 91.019531 169.789062 90.886719 169.472656 C 90.757812 169.15625 90.691406 168.828125 90.691406 168.484375 C 90.6875 168.121094 90.75 167.773438 90.875 167.433594 C 91 167.09375 91.183594 166.789062 91.421875 166.515625 C 91.660156 166.246094 91.9375 166.023438 92.257812 165.855469 C 92.578125 165.683594 92.917969 165.578125 93.277344 165.53125 " fill-opacity="1" fill-rule="nonzero"/><path fill="#da0921" d="M 86.996094 162.210938 C 87.339844 162.210938 87.667969 162.277344 87.984375 162.40625 C 88.300781 162.539062 88.582031 162.722656 88.824219 162.964844 C 89.066406 163.210938 89.253906 163.488281 89.386719 163.804688 C 89.515625 164.121094 89.582031 164.449219 89.582031 164.792969 C 89.582031 165.136719 89.515625 165.464844 89.386719 165.785156 C 89.253906 166.101562 89.066406 166.378906 88.824219 166.621094 C 88.582031 166.867188 88.304688 167.050781 87.984375 167.183594 C 87.667969 167.316406 87.339844 167.378906 86.996094 167.378906 C 86.652344 167.378906 86.320312 167.316406 86.003906 167.183594 C 85.6875 167.050781 85.40625 166.867188 85.164062 166.621094 C 84.921875 166.378906 84.734375 166.101562 84.605469 165.785156 C 84.472656 165.464844 84.40625 165.136719 84.40625 164.792969 C 84.40625 164.449219 84.472656 164.121094 84.605469 163.804688 C 84.738281 163.488281 84.921875 163.210938 85.164062 162.964844 C 85.410156 162.722656 85.6875 162.539062 86.003906 162.40625 C 86.320312 162.277344 86.652344 162.210938 86.996094 162.210938 " fill-opacity="1" fill-rule="nonzero"/><path fill="#da0921" d="M 81.453125 157.414062 C 81.8125 157.457031 82.152344 157.566406 82.46875 157.734375 C 82.789062 157.90625 83.070312 158.125 83.308594 158.398438 C 83.546875 158.667969 83.726562 158.976562 83.855469 159.3125 C 83.980469 159.652344 84.042969 160.003906 84.039062 160.363281 C 84.039062 160.707031 83.972656 161.035156 83.839844 161.351562 C 83.710938 161.671875 83.523438 161.949219 83.28125 162.191406 C 83.039062 162.433594 82.757812 162.621094 82.441406 162.75 C 82.125 162.882812 81.792969 162.949219 81.453125 162.949219 C 81.089844 162.949219 80.738281 162.890625 80.398438 162.765625 C 80.058594 162.636719 79.753906 162.457031 79.480469 162.21875 C 79.210938 161.980469 78.988281 161.699219 78.816406 161.382812 C 78.648438 161.0625 78.539062 160.722656 78.496094 160.363281 C 78.535156 159.988281 78.636719 159.625 78.800781 159.285156 C 78.964844 158.941406 79.183594 158.636719 79.449219 158.367188 C 79.71875 158.097656 80.027344 157.882812 80.371094 157.71875 C 80.710938 157.554688 81.074219 157.453125 81.453125 157.414062 " fill-opacity="1" fill-rule="nonzero"/><path fill="#da0921" d="M 76.648438 151.875 C 76.992188 151.875 77.320312 151.941406 77.636719 152.074219 C 77.953125 152.203125 78.234375 152.390625 78.476562 152.632812 C 78.71875 152.875 78.90625 153.15625 79.039062 153.472656 C 79.167969 153.789062 79.234375 154.117188 79.234375 154.460938 C 79.238281 154.820312 79.175781 155.171875 79.050781 155.511719 C 78.921875 155.847656 78.742188 156.15625 78.503906 156.425781 C 78.265625 156.699219 77.984375 156.921875 77.664062 157.089844 C 77.347656 157.257812 77.007812 157.367188 76.648438 157.414062 C 76.269531 157.371094 75.910156 157.269531 75.566406 157.105469 C 75.222656 156.941406 74.914062 156.726562 74.648438 156.457031 C 74.378906 156.1875 74.160156 155.882812 73.996094 155.539062 C 73.832031 155.199219 73.730469 154.835938 73.691406 154.460938 C 73.738281 154.101562 73.84375 153.761719 74.015625 153.441406 C 74.183594 153.125 74.40625 152.84375 74.675781 152.605469 C 74.949219 152.367188 75.257812 152.1875 75.59375 152.0625 C 75.933594 151.933594 76.285156 151.875 76.648438 151.875 " fill-opacity="1" fill-rule="nonzero"/><path fill="#da0921" d="M 72.582031 145.601562 C 72.941406 145.648438 73.28125 145.753906 73.601562 145.925781 C 73.921875 146.09375 74.199219 146.316406 74.4375 146.585938 C 74.675781 146.859375 74.859375 147.164062 74.984375 147.503906 C 75.109375 147.84375 75.171875 148.191406 75.167969 148.554688 C 75.167969 148.898438 75.105469 149.226562 74.972656 149.542969 C 74.839844 149.859375 74.652344 150.140625 74.410156 150.382812 C 74.167969 150.625 73.890625 150.808594 73.574219 150.941406 C 73.253906 151.074219 72.925781 151.136719 72.582031 151.136719 C 72.238281 151.136719 71.910156 151.074219 71.59375 150.941406 C 71.277344 150.808594 70.996094 150.625 70.753906 150.382812 C 70.511719 150.140625 70.324219 149.859375 70.191406 149.542969 C 70.0625 149.226562 69.996094 148.898438 69.996094 148.554688 C 69.992188 148.191406 70.054688 147.84375 70.179688 147.503906 C 70.304688 147.164062 70.488281 146.859375 70.726562 146.585938 C 70.964844 146.316406 71.246094 146.09375 71.5625 145.925781 C 71.882812 145.753906 72.222656 145.648438 72.582031 145.601562 " fill-opacity="1" fill-rule="nonzero"/><path fill="#da0921" d="M 69.625 139.695312 C 69.96875 139.695312 70.300781 139.761719 70.617188 139.894531 C 70.933594 140.023438 71.210938 140.210938 71.457031 140.453125 C 71.699219 140.695312 71.886719 140.976562 72.015625 141.292969 C 72.148438 141.609375 72.214844 141.9375 72.214844 142.28125 C 72.214844 142.625 72.148438 142.953125 72.015625 143.269531 C 71.886719 143.585938 71.699219 143.863281 71.457031 144.105469 C 71.210938 144.351562 70.933594 144.535156 70.617188 144.667969 C 70.300781 144.796875 69.96875 144.863281 69.625 144.863281 C 69.28125 144.863281 68.953125 144.796875 68.636719 144.667969 C 68.320312 144.535156 68.039062 144.351562 67.796875 144.105469 C 67.554688 143.863281 67.367188 143.585938 67.234375 143.269531 C 67.105469 142.953125 67.039062 142.625 67.039062 142.28125 C 67.039062 141.9375 67.105469 141.609375 67.234375 141.292969 C 67.367188 140.976562 67.554688 140.695312 67.796875 140.453125 C 68.039062 140.210938 68.320312 140.023438 68.636719 139.894531 C 68.953125 139.761719 69.28125 139.695312 69.625 139.695312 " fill-opacity="1" fill-rule="nonzero"/><path fill="#da0921" d="M 67.410156 132.683594 C 67.75 132.683594 68.082031 132.75 68.398438 132.882812 C 68.714844 133.011719 68.996094 133.199219 69.238281 133.441406 C 69.480469 133.683594 69.667969 133.964844 69.796875 134.28125 C 69.929688 134.597656 69.996094 134.925781 69.996094 135.269531 C 69.996094 135.609375 69.929688 135.941406 69.796875 136.257812 C 69.667969 136.574219 69.480469 136.851562 69.238281 137.09375 C 68.996094 137.335938 68.714844 137.523438 68.398438 137.65625 C 68.082031 137.785156 67.75 137.851562 67.410156 137.851562 C 67.066406 137.851562 66.734375 137.785156 66.417969 137.65625 C 66.101562 137.523438 65.820312 137.335938 65.578125 137.09375 C 65.335938 136.851562 65.148438 136.574219 65.019531 136.257812 C 64.886719 135.941406 64.820312 135.609375 64.820312 135.269531 C 64.820312 134.925781 64.886719 134.597656 65.019531 134.28125 C 65.148438 133.964844 65.335938 133.683594 65.578125 133.441406 C 65.820312 133.199219 66.101562 133.011719 66.417969 132.882812 C 66.734375 132.75 67.066406 132.683594 67.410156 132.683594 " fill-opacity="1" fill-rule="nonzero"/><path fill="#da0921" d="M 65.929688 125.304688 C 66.289062 125.347656 66.628906 125.457031 66.949219 125.625 C 67.269531 125.796875 67.546875 126.015625 67.785156 126.289062 C 68.023438 126.5625 68.207031 126.867188 68.332031 127.207031 C 68.457031 127.542969 68.519531 127.894531 68.515625 128.257812 C 68.515625 128.597656 68.453125 128.929688 68.320312 129.246094 C 68.1875 129.5625 68.003906 129.839844 67.761719 130.082031 C 67.515625 130.324219 67.238281 130.511719 66.921875 130.644531 C 66.605469 130.773438 66.273438 130.839844 65.929688 130.839844 C 65.585938 130.839844 65.257812 130.773438 64.941406 130.644531 C 64.625 130.511719 64.34375 130.324219 64.101562 130.082031 C 63.859375 129.839844 63.671875 129.5625 63.539062 129.246094 C 63.410156 128.929688 63.34375 128.597656 63.34375 128.257812 C 63.339844 127.894531 63.402344 127.542969 63.527344 127.207031 C 63.65625 126.867188 63.835938 126.5625 64.074219 126.289062 C 64.3125 126.015625 64.59375 125.796875 64.914062 125.625 C 65.230469 125.457031 65.570312 125.347656 65.929688 125.304688 " fill-opacity="1" fill-rule="nonzero"/><path fill="#da0921" d="M 113.972656 68.46875 C 113.613281 68.511719 113.273438 68.621094 112.953125 68.789062 C 112.632812 68.960938 112.355469 69.179688 112.117188 69.453125 C 111.878906 69.726562 111.695312 70.03125 111.570312 70.371094 C 111.445312 70.707031 111.382812 71.058594 111.386719 71.421875 C 111.386719 71.761719 111.449219 72.09375 111.582031 72.410156 C 111.714844 72.726562 111.902344 73.003906 112.144531 73.246094 C 112.386719 73.488281 112.664062 73.675781 112.980469 73.808594 C 113.300781 73.9375 113.628906 74.003906 113.972656 74.003906 C 114.316406 74.003906 114.644531 73.9375 114.960938 73.808594 C 115.277344 73.675781 115.558594 73.488281 115.800781 73.246094 C 116.042969 73.003906 116.230469 72.726562 116.363281 72.410156 C 116.492188 72.09375 116.558594 71.761719 116.558594 71.421875 C 116.5625 71.058594 116.5 70.707031 116.375 70.371094 C 116.25 70.03125 116.066406 69.726562 115.828125 69.453125 C 115.589844 69.179688 115.308594 68.960938 114.992188 68.789062 C 114.671875 68.621094 114.332031 68.511719 113.972656 68.46875 " fill-opacity="1" fill-rule="nonzero"/><path fill="#da0921" d="M 120.992188 70.683594 C 120.632812 70.726562 120.296875 70.835938 119.976562 71.003906 C 119.65625 71.175781 119.375 71.394531 119.136719 71.667969 C 118.898438 71.9375 118.71875 72.246094 118.589844 72.582031 C 118.464844 72.921875 118.402344 73.273438 118.40625 73.632812 C 118.40625 73.976562 118.472656 74.308594 118.605469 74.625 C 118.734375 74.941406 118.921875 75.21875 119.164062 75.460938 C 119.40625 75.703125 119.6875 75.890625 120.003906 76.019531 C 120.320312 76.152344 120.652344 76.21875 120.992188 76.21875 C 121.335938 76.21875 121.667969 76.152344 121.984375 76.019531 C 122.300781 75.890625 122.582031 75.703125 122.824219 75.460938 C 123.066406 75.21875 123.253906 74.941406 123.382812 74.625 C 123.515625 74.308594 123.582031 73.976562 123.582031 73.632812 C 123.582031 73.273438 123.523438 72.921875 123.394531 72.582031 C 123.269531 72.246094 123.085938 71.9375 122.847656 71.667969 C 122.609375 71.394531 122.332031 71.175781 122.011719 71.003906 C 121.691406 70.835938 121.351562 70.726562 120.992188 70.683594 " fill-opacity="1" fill-rule="nonzero"/><path fill="#da0921" d="M 127.277344 74.371094 C 126.933594 74.371094 126.601562 74.4375 126.285156 74.570312 C 125.96875 74.699219 125.6875 74.886719 125.445312 75.128906 C 125.203125 75.371094 125.015625 75.652344 124.886719 75.96875 C 124.753906 76.285156 124.6875 76.613281 124.6875 76.957031 C 124.6875 77.296875 124.753906 77.628906 124.886719 77.945312 C 125.015625 78.261719 125.203125 78.539062 125.445312 78.78125 C 125.6875 79.023438 125.96875 79.210938 126.285156 79.34375 C 126.601562 79.472656 126.933594 79.539062 127.277344 79.539062 C 127.617188 79.539062 127.949219 79.472656 128.265625 79.34375 C 128.582031 79.210938 128.863281 79.023438 129.105469 78.78125 C 129.347656 78.539062 129.535156 78.261719 129.664062 77.945312 C 129.796875 77.628906 129.863281 77.296875 129.863281 76.957031 C 129.863281 76.613281 129.796875 76.285156 129.664062 75.96875 C 129.535156 75.652344 129.347656 75.371094 129.105469 75.128906 C 128.863281 74.886719 128.582031 74.699219 128.265625 74.570312 C 127.949219 74.4375 127.617188 74.371094 127.277344 74.371094 " fill-opacity="1" fill-rule="nonzero"/><path fill="#da0921" d="M 133.1875 78.800781 C 132.828125 78.796875 132.476562 78.859375 132.136719 78.984375 C 131.796875 79.113281 131.492188 79.292969 131.21875 79.53125 C 130.945312 79.769531 130.726562 80.046875 130.554688 80.367188 C 130.386719 80.6875 130.277344 81.027344 130.234375 81.386719 C 130.273438 81.761719 130.375 82.125 130.539062 82.464844 C 130.703125 82.808594 130.917969 83.113281 131.1875 83.382812 C 131.457031 83.652344 131.761719 83.867188 132.105469 84.03125 C 132.449219 84.195312 132.808594 84.296875 133.1875 84.335938 C 133.546875 84.292969 133.886719 84.183594 134.207031 84.015625 C 134.527344 83.84375 134.804688 83.625 135.042969 83.351562 C 135.28125 83.082031 135.464844 82.773438 135.589844 82.4375 C 135.71875 82.097656 135.777344 81.746094 135.777344 81.386719 C 135.777344 81.042969 135.710938 80.710938 135.578125 80.394531 C 135.449219 80.078125 135.261719 79.800781 135.019531 79.558594 C 134.777344 79.316406 134.496094 79.128906 134.179688 79 C 133.863281 78.867188 133.53125 78.800781 133.1875 78.800781 " fill-opacity="1" fill-rule="nonzero"/><path fill="#da0921" d="M 137.625 83.96875 C 137.265625 84.011719 136.925781 84.121094 136.605469 84.289062 C 136.285156 84.460938 136.007812 84.679688 135.769531 84.953125 C 135.53125 85.226562 135.347656 85.53125 135.222656 85.871094 C 135.09375 86.210938 135.035156 86.558594 135.035156 86.921875 C 135.035156 87.261719 135.101562 87.59375 135.234375 87.910156 C 135.363281 88.226562 135.550781 88.503906 135.792969 88.746094 C 136.035156 88.988281 136.316406 89.175781 136.632812 89.308594 C 136.949219 89.4375 137.28125 89.503906 137.625 89.503906 C 137.984375 89.507812 138.335938 89.445312 138.675781 89.320312 C 139.015625 89.195312 139.320312 89.011719 139.59375 88.773438 C 139.867188 88.535156 140.085938 88.257812 140.257812 87.9375 C 140.425781 87.617188 140.535156 87.28125 140.578125 86.921875 C 140.539062 86.542969 140.4375 86.183594 140.273438 85.839844 C 140.109375 85.496094 139.894531 85.191406 139.625 84.921875 C 139.355469 84.652344 139.050781 84.4375 138.707031 84.273438 C 138.363281 84.109375 138 84.007812 137.625 83.96875 " fill-opacity="1" fill-rule="nonzero"/><path fill="#da0921" d="M 141.6875 90.242188 C 141.34375 90.242188 141.015625 90.308594 140.699219 90.4375 C 140.382812 90.570312 140.101562 90.757812 139.859375 91 C 139.617188 91.242188 139.429688 91.519531 139.296875 91.835938 C 139.167969 92.152344 139.101562 92.484375 139.101562 92.824219 C 139.097656 93.1875 139.160156 93.539062 139.285156 93.875 C 139.414062 94.214844 139.59375 94.519531 139.832031 94.792969 C 140.070312 95.066406 140.351562 95.285156 140.671875 95.457031 C 140.988281 95.625 141.328125 95.734375 141.6875 95.777344 C 142.066406 95.738281 142.425781 95.636719 142.769531 95.472656 C 143.113281 95.308594 143.421875 95.09375 143.6875 94.824219 C 143.957031 94.554688 144.175781 94.25 144.339844 93.90625 C 144.503906 93.5625 144.605469 93.203125 144.644531 92.824219 C 144.601562 92.46875 144.492188 92.128906 144.320312 91.808594 C 144.152344 91.488281 143.929688 91.210938 143.660156 90.972656 C 143.386719 90.734375 143.078125 90.554688 142.742188 90.425781 C 142.402344 90.300781 142.050781 90.238281 141.6875 90.242188 " fill-opacity="1" fill-rule="nonzero"/><path fill="#da0921" d="M 144.644531 96.886719 C 144.300781 96.886719 143.972656 96.953125 143.65625 97.082031 C 143.339844 97.214844 143.058594 97.398438 142.816406 97.640625 C 142.574219 97.882812 142.386719 98.164062 142.253906 98.480469 C 142.125 98.796875 142.058594 99.125 142.058594 99.46875 C 142.058594 99.8125 142.125 100.140625 142.253906 100.457031 C 142.386719 100.773438 142.574219 101.054688 142.816406 101.296875 C 143.058594 101.539062 143.339844 101.726562 143.65625 101.855469 C 143.972656 101.988281 144.300781 102.050781 144.644531 102.050781 C 144.988281 102.050781 145.316406 101.988281 145.636719 101.855469 C 145.953125 101.726562 146.230469 101.539062 146.472656 101.296875 C 146.714844 101.054688 146.902344 100.773438 147.035156 100.457031 C 147.167969 100.140625 147.230469 99.8125 147.230469 99.46875 C 147.230469 99.125 147.167969 98.796875 147.035156 98.480469 C 146.902344 98.164062 146.714844 97.882812 146.472656 97.640625 C 146.230469 97.398438 145.953125 97.214844 145.636719 97.082031 C 145.316406 96.953125 144.988281 96.886719 144.644531 96.886719 " fill-opacity="1" fill-rule="nonzero"/><path fill="#da0921" d="M 147.230469 103.527344 C 146.871094 103.574219 146.53125 103.679688 146.214844 103.851562 C 145.894531 104.019531 145.613281 104.242188 145.375 104.515625 C 145.136719 104.785156 144.957031 105.089844 144.828125 105.429688 C 144.703125 105.769531 144.640625 106.121094 144.644531 106.480469 C 144.644531 106.824219 144.710938 107.152344 144.839844 107.46875 C 144.972656 107.785156 145.160156 108.066406 145.402344 108.308594 C 145.644531 108.550781 145.925781 108.738281 146.242188 108.867188 C 146.558594 109 146.890625 109.066406 147.230469 109.066406 C 147.574219 109.066406 147.90625 109 148.222656 108.867188 C 148.539062 108.738281 148.820312 108.550781 149.0625 108.308594 C 149.304688 108.066406 149.492188 107.785156 149.621094 107.46875 C 149.753906 107.152344 149.820312 106.824219 149.820312 106.480469 C 149.820312 106.121094 149.761719 105.769531 149.632812 105.429688 C 149.507812 105.089844 149.324219 104.785156 149.085938 104.515625 C 148.847656 104.242188 148.570312 104.019531 148.25 103.851562 C 147.929688 103.679688 147.589844 103.574219 147.230469 103.527344 " fill-opacity="1" fill-rule="nonzero"/><path fill="#da0921" d="M 148.339844 110.910156 C 147.996094 110.910156 147.667969 110.976562 147.351562 111.105469 C 147.035156 111.238281 146.753906 111.425781 146.511719 111.667969 C 146.269531 111.910156 146.082031 112.1875 145.949219 112.503906 C 145.820312 112.820312 145.753906 113.152344 145.753906 113.492188 C 145.753906 113.835938 145.820312 114.164062 145.949219 114.480469 C 146.082031 114.796875 146.269531 115.078125 146.511719 115.320312 C 146.753906 115.5625 147.035156 115.75 147.351562 115.878906 C 147.667969 116.011719 147.996094 116.078125 148.339844 116.078125 C 148.683594 116.078125 149.011719 116.011719 149.332031 115.878906 C 149.648438 115.75 149.925781 115.5625 150.167969 115.320312 C 150.414062 115.078125 150.597656 114.796875 150.730469 114.480469 C 150.863281 114.164062 150.925781 113.835938 150.925781 113.492188 C 150.925781 113.152344 150.863281 112.820312 150.730469 112.503906 C 150.597656 112.1875 150.414062 111.910156 150.167969 111.667969 C 149.925781 111.425781 149.648438 111.238281 149.332031 111.105469 C 149.011719 110.976562 148.683594 110.910156 148.339844 110.910156 " fill-opacity="1" fill-rule="nonzero"/><path fill="#da0921" d="M 113.972656 167.746094 C 113.613281 167.792969 113.273438 167.898438 112.953125 168.070312 C 112.632812 168.238281 112.355469 168.460938 112.117188 168.730469 C 111.878906 169.003906 111.695312 169.308594 111.570312 169.648438 C 111.445312 169.988281 111.382812 170.335938 111.386719 170.699219 C 111.386719 171.042969 111.449219 171.371094 111.582031 171.6875 C 111.714844 172.003906 111.902344 172.28125 112.144531 172.523438 C 112.386719 172.769531 112.664062 172.953125 112.980469 173.085938 C 113.300781 173.214844 113.628906 173.28125 113.972656 173.28125 C 114.316406 173.28125 114.644531 173.214844 114.960938 173.085938 C 115.277344 172.953125 115.558594 172.769531 115.800781 172.523438 C 116.042969 172.28125 116.230469 172.003906 116.363281 171.6875 C 116.492188 171.371094 116.558594 171.042969 116.558594 170.699219 C 116.5625 170.335938 116.5 169.988281 116.375 169.648438 C 116.25 169.308594 116.066406 169.003906 115.828125 168.730469 C 115.589844 168.460938 115.308594 168.238281 114.992188 168.070312 C 114.671875 167.898438 114.332031 167.792969 113.972656 167.746094 " fill-opacity="1" fill-rule="nonzero"/><path fill="#da0921" d="M 120.992188 165.53125 C 120.632812 165.578125 120.296875 165.683594 119.976562 165.855469 C 119.65625 166.023438 119.375 166.246094 119.136719 166.515625 C 118.898438 166.789062 118.71875 167.09375 118.589844 167.433594 C 118.464844 167.773438 118.402344 168.121094 118.40625 168.484375 C 118.40625 168.828125 118.472656 169.15625 118.605469 169.472656 C 118.734375 169.789062 118.921875 170.070312 119.164062 170.3125 C 119.40625 170.554688 119.6875 170.738281 120.003906 170.871094 C 120.320312 171.003906 120.652344 171.066406 120.992188 171.066406 C 121.335938 171.066406 121.667969 171.003906 121.984375 170.871094 C 122.300781 170.738281 122.582031 170.554688 122.824219 170.3125 C 123.066406 170.070312 123.253906 169.789062 123.382812 169.472656 C 123.515625 169.15625 123.582031 168.828125 123.582031 168.484375 C 123.582031 168.121094 123.523438 167.773438 123.394531 167.433594 C 123.269531 167.09375 123.085938 166.789062 122.847656 166.515625 C 122.609375 166.246094 122.332031 166.023438 122.011719 165.855469 C 121.691406 165.683594 121.351562 165.578125 120.992188 165.53125 " fill-opacity="1" fill-rule="nonzero"/><path fill="#da0921" d="M 127.277344 162.210938 C 126.933594 162.210938 126.601562 162.277344 126.285156 162.40625 C 125.96875 162.539062 125.6875 162.722656 125.445312 162.964844 C 125.203125 163.210938 125.015625 163.488281 124.886719 163.804688 C 124.753906 164.121094 124.6875 164.449219 124.6875 164.792969 C 124.6875 165.15625 124.746094 165.503906 124.875 165.84375 C 125 166.183594 125.183594 166.488281 125.421875 166.761719 C 125.660156 167.03125 125.9375 167.253906 126.257812 167.421875 C 126.578125 167.59375 126.917969 167.699219 127.277344 167.746094 C 127.65625 167.707031 128.015625 167.605469 128.359375 167.441406 C 128.703125 167.277344 129.007812 167.058594 129.277344 166.792969 C 129.546875 166.523438 129.761719 166.21875 129.925781 165.875 C 130.089844 165.53125 130.191406 165.171875 130.234375 164.792969 C 130.1875 164.433594 130.078125 164.097656 129.910156 163.777344 C 129.738281 163.457031 129.519531 163.179688 129.246094 162.941406 C 128.972656 162.703125 128.667969 162.519531 128.328125 162.394531 C 127.988281 162.269531 127.636719 162.207031 127.277344 162.210938 " fill-opacity="1" fill-rule="nonzero"/><path fill="#da0921" d="M 133.1875 157.414062 C 132.808594 157.453125 132.449219 157.554688 132.105469 157.71875 C 131.761719 157.882812 131.457031 158.097656 131.1875 158.367188 C 130.917969 158.636719 130.703125 158.941406 130.539062 159.285156 C 130.375 159.625 130.273438 159.988281 130.234375 160.363281 C 130.277344 160.722656 130.386719 161.0625 130.554688 161.382812 C 130.726562 161.699219 130.945312 161.980469 131.21875 162.21875 C 131.492188 162.457031 131.796875 162.636719 132.136719 162.765625 C 132.476562 162.890625 132.828125 162.949219 133.1875 162.949219 C 133.53125 162.949219 133.863281 162.882812 134.179688 162.75 C 134.496094 162.621094 134.777344 162.433594 135.019531 162.191406 C 135.261719 161.949219 135.449219 161.671875 135.578125 161.351562 C 135.710938 161.035156 135.777344 160.707031 135.777344 160.363281 C 135.777344 160.003906 135.71875 159.652344 135.589844 159.3125 C 135.464844 158.976562 135.28125 158.667969 135.042969 158.398438 C 134.804688 158.125 134.527344 157.90625 134.207031 157.734375 C 133.886719 157.566406 133.546875 157.457031 133.1875 157.414062 " fill-opacity="1" fill-rule="nonzero"/><path fill="#da0921" d="M 137.992188 151.875 C 137.632812 151.875 137.28125 151.933594 136.941406 152.0625 C 136.601562 152.1875 136.296875 152.367188 136.023438 152.605469 C 135.75 152.84375 135.53125 153.125 135.359375 153.441406 C 135.1875 153.761719 135.082031 154.101562 135.035156 154.460938 C 135.078125 154.835938 135.179688 155.199219 135.34375 155.539062 C 135.507812 155.882812 135.722656 156.1875 135.992188 156.457031 C 136.261719 156.726562 136.566406 156.941406 136.910156 157.105469 C 137.253906 157.269531 137.613281 157.371094 137.992188 157.414062 C 138.351562 157.367188 138.691406 157.257812 139.011719 157.089844 C 139.332031 156.921875 139.609375 156.699219 139.847656 156.425781 C 140.085938 156.15625 140.269531 155.847656 140.394531 155.511719 C 140.519531 155.171875 140.582031 154.820312 140.578125 154.460938 C 140.578125 154.117188 140.515625 153.789062 140.382812 153.472656 C 140.25 153.15625 140.066406 152.875 139.820312 152.632812 C 139.578125 152.390625 139.300781 152.203125 138.984375 152.074219 C 138.664062 151.941406 138.335938 151.875 137.992188 151.875 " fill-opacity="1" fill-rule="nonzero"/><path fill="#da0921" d="M 141.6875 145.601562 C 141.328125 145.648438 140.988281 145.753906 140.671875 145.925781 C 140.351562 146.09375 140.070312 146.316406 139.832031 146.585938 C 139.59375 146.859375 139.414062 147.164062 139.285156 147.503906 C 139.160156 147.84375 139.097656 148.191406 139.101562 148.554688 C 139.101562 148.898438 139.167969 149.226562 139.296875 149.542969 C 139.429688 149.859375 139.617188 150.140625 139.859375 150.382812 C 140.101562 150.625 140.382812 150.808594 140.699219 150.941406 C 141.015625 151.074219 141.34375 151.136719 141.6875 151.136719 C 142.050781 151.140625 142.402344 151.078125 142.742188 150.953125 C 143.078125 150.828125 143.386719 150.644531 143.660156 150.40625 C 143.929688 150.167969 144.152344 149.890625 144.320312 149.570312 C 144.492188 149.253906 144.601562 148.914062 144.644531 148.554688 C 144.605469 148.175781 144.503906 147.816406 144.339844 147.472656 C 144.175781 147.132812 143.957031 146.824219 143.6875 146.554688 C 143.421875 146.289062 143.113281 146.070312 142.769531 145.90625 C 142.425781 145.746094 142.066406 145.640625 141.6875 145.601562 " fill-opacity="1" fill-rule="nonzero"/><path fill="#da0921" d="M 144.644531 139.695312 C 144.300781 139.695312 143.972656 139.761719 143.65625 139.894531 C 143.339844 140.023438 143.058594 140.210938 142.816406 140.453125 C 142.574219 140.695312 142.386719 140.976562 142.253906 141.292969 C 142.125 141.609375 142.058594 141.9375 142.058594 142.28125 C 142.058594 142.625 142.125 142.953125 142.253906 143.269531 C 142.386719 143.585938 142.574219 143.863281 142.816406 144.105469 C 143.058594 144.351562 143.339844 144.535156 143.65625 144.667969 C 143.972656 144.796875 144.300781 144.863281 144.644531 144.863281 C 144.988281 144.863281 145.316406 144.796875 145.636719 144.667969 C 145.953125 144.535156 146.230469 144.351562 146.472656 144.105469 C 146.714844 143.863281 146.902344 143.585938 147.035156 143.269531 C 147.167969 142.953125 147.230469 142.625 147.230469 142.28125 C 147.230469 141.9375 147.167969 141.609375 147.035156 141.292969 C 146.902344 140.976562 146.714844 140.695312 146.472656 140.453125 C 146.230469 140.210938 145.953125 140.023438 145.636719 139.894531 C 145.316406 139.761719 144.988281 139.695312 144.644531 139.695312 " fill-opacity="1" fill-rule="nonzero"/><path fill="#da0921" d="M 147.230469 132.683594 C 146.890625 132.683594 146.558594 132.75 146.242188 132.882812 C 145.925781 133.011719 145.644531 133.199219 145.402344 133.441406 C 145.160156 133.683594 144.972656 133.964844 144.84375 134.28125 C 144.710938 134.597656 144.644531 134.925781 144.644531 135.269531 C 144.644531 135.609375 144.710938 135.941406 144.84375 136.257812 C 144.972656 136.574219 145.160156 136.851562 145.402344 137.09375 C 145.644531 137.335938 145.925781 137.523438 146.242188 137.65625 C 146.558594 137.785156 146.890625 137.851562 147.230469 137.851562 C 147.574219 137.851562 147.90625 137.785156 148.222656 137.65625 C 148.539062 137.523438 148.820312 137.335938 149.0625 137.09375 C 149.304688 136.851562 149.492188 136.574219 149.621094 136.257812 C 149.753906 135.941406 149.820312 135.609375 149.820312 135.269531 C 149.820312 134.925781 149.753906 134.597656 149.621094 134.28125 C 149.492188 133.964844 149.304688 133.683594 149.0625 133.441406 C 148.820312 133.199219 148.539062 133.011719 148.222656 132.882812 C 147.90625 132.75 147.574219 132.683594 147.230469 132.683594 " fill-opacity="1" fill-rule="nonzero"/><path fill="#da0921" d="M 148.339844 125.304688 C 147.980469 125.347656 147.640625 125.457031 147.320312 125.625 C 147.003906 125.796875 146.722656 126.015625 146.484375 126.289062 C 146.246094 126.5625 146.0625 126.867188 145.9375 127.207031 C 145.8125 127.542969 145.75 127.894531 145.753906 128.257812 C 145.753906 128.597656 145.820312 128.929688 145.949219 129.246094 C 146.082031 129.5625 146.269531 129.839844 146.511719 130.082031 C 146.753906 130.324219 147.035156 130.511719 147.351562 130.644531 C 147.667969 130.773438 147.996094 130.839844 148.339844 130.839844 C 148.683594 130.839844 149.011719 130.773438 149.332031 130.644531 C 149.648438 130.511719 149.925781 130.324219 150.167969 130.082031 C 150.414062 129.839844 150.597656 129.5625 150.730469 129.246094 C 150.863281 128.929688 150.925781 128.597656 150.925781 128.257812 C 150.929688 127.894531 150.867188 127.542969 150.742188 127.207031 C 150.617188 126.867188 150.433594 126.5625 150.195312 126.289062 C 149.957031 126.015625 149.679688 125.796875 149.359375 125.625 C 149.039062 125.457031 148.699219 125.347656 148.339844 125.304688 " fill-opacity="1" fill-rule="nonzero"/><path fill="#da0921" d="M 105.101562 103.898438 C 105.0625 103.570312 104.972656 103.253906 104.828125 102.957031 C 104.683594 102.660156 104.492188 102.394531 104.257812 102.160156 C 104.023438 101.925781 103.757812 101.734375 103.457031 101.589844 C 103.160156 101.445312 102.84375 101.355469 102.515625 101.316406 C 99.558594 101.316406 100.667969 105.742188 98.820312 102.050781 C 96.972656 98.363281 98.449219 92.085938 104.734375 93.5625 C 104.242188 92.902344 103.816406 92.199219 103.460938 91.457031 C 103.101562 90.714844 102.820312 89.945312 102.609375 89.148438 C 102.398438 88.351562 102.269531 87.542969 102.214844 86.722656 C 102.160156 85.898438 102.183594 85.078125 102.285156 84.261719 C 102.386719 83.445312 102.566406 82.644531 102.820312 81.863281 C 103.078125 81.078125 103.40625 80.328125 103.804688 79.605469 C 104.203125 78.886719 104.667969 78.210938 105.199219 77.578125 C 105.726562 76.945312 106.3125 76.371094 106.949219 75.847656 L 107.320312 75.847656 C 94.386719 75.847656 86.257812 83.96875 81.082031 89.875 L 105.101562 119.03125 L 105.101562 104.265625 " fill-opacity="1" fill-rule="nonzero"/><path fill="#da0921" d="M 105.101562 118.660156 L 94.753906 118.660156 C 89.210938 118.660156 91.429688 112.753906 93.648438 111.648438 C 95.863281 110.542969 84.40625 109.066406 85.886719 117.554688 C 79.605469 111.277344 72.953125 116.078125 70.734375 120.503906 L 105.101562 120.503906 Z M 105.101562 118.660156 " fill-opacity="1" fill-rule="nonzero"/><path fill="#da0921" d="M 93.648438 129.734375 C 91.800781 133.054688 84.40625 132.316406 85.886719 123.828125 C 79.605469 130.101562 72.953125 125.304688 70.734375 120.503906 C 70.363281 132.316406 76.648438 147.078125 81.453125 151.875 L 105.101562 122.71875 L 94.753906 122.71875 C 89.210938 122.71875 91.429688 128.625 93.648438 129.734375 " fill-opacity="1" fill-rule="nonzero"/><path fill="#da0921" d="M 109.539062 120.503906 L 109.539062 105.003906 C 109.539062 102.050781 111.386719 101.316406 112.125 101.316406 C 112.863281 101.316406 114.339844 105.742188 115.820312 102.050781 C 117.296875 98.363281 116.558594 92.085938 109.90625 93.5625 C 110.394531 92.878906 110.8125 92.152344 111.160156 91.382812 C 111.507812 90.617188 111.78125 89.824219 111.980469 89.007812 C 112.179688 88.1875 112.296875 87.359375 112.339844 86.519531 C 112.378906 85.679688 112.339844 84.839844 112.21875 84.007812 C 112.101562 83.175781 111.902344 82.359375 111.628906 81.5625 C 111.355469 80.769531 111.007812 80.003906 110.589844 79.273438 C 110.167969 78.542969 109.683594 77.859375 109.136719 77.222656 C 108.585938 76.585938 107.980469 76.003906 107.320312 75.480469 L 107.320312 120.503906 Z M 109.539062 120.503906 " fill-opacity="1" fill-rule="nonzero"/><path fill="#da0921" d="M 109.539062 137.484375 C 109.671875 138.132812 109.972656 138.691406 110.445312 139.160156 C 110.914062 139.628906 111.472656 139.933594 112.125 140.066406 C 115.082031 140.066406 114.339844 135.636719 115.820312 139.328125 C 117.296875 143.019531 116.558594 149.292969 110.277344 147.816406 C 110.757812 148.488281 111.171875 149.199219 111.515625 149.953125 C 111.859375 150.703125 112.128906 151.480469 112.324219 152.285156 C 112.519531 153.089844 112.636719 153.902344 112.675781 154.730469 C 112.714844 155.554688 112.675781 156.375 112.554688 157.195312 C 112.433594 158.011719 112.238281 158.8125 111.964844 159.589844 C 111.691406 160.371094 111.347656 161.121094 110.929688 161.832031 C 110.515625 162.546875 110.035156 163.214844 109.488281 163.839844 C 108.941406 164.460938 108.34375 165.023438 107.691406 165.53125 C 107.691406 165.902344 107.691406 165.902344 107.320312 165.902344 C 109.925781 165.839844 112.484375 165.46875 115 164.792969 C 117.515625 164.117188 119.914062 163.152344 122.195312 161.898438 C 124.480469 160.644531 126.582031 159.140625 128.503906 157.382812 C 130.421875 155.628906 132.109375 153.667969 133.558594 151.507812 L 109.539062 122.71875 L 109.539062 137.484375 " fill-opacity="1" fill-rule="nonzero"/><path fill="#da0921" d="M 109.539062 122.71875 L 119.886719 122.71875 C 125.796875 122.71875 123.582031 128.625 121.363281 129.734375 C 119.144531 130.839844 130.601562 132.316406 128.753906 123.828125 C 129.277344 124.421875 129.871094 124.933594 130.53125 125.367188 C 131.191406 125.804688 131.898438 126.144531 132.652344 126.390625 C 133.402344 126.636719 134.175781 126.777344 134.964844 126.816406 C 135.753906 126.855469 136.535156 126.792969 137.308594 126.621094 C 138.082031 126.453125 138.820312 126.183594 139.519531 125.816406 C 140.222656 125.453125 140.863281 125 141.441406 124.460938 C 142.023438 123.925781 142.519531 123.320312 142.9375 122.648438 C 143.355469 121.976562 143.679688 121.261719 143.90625 120.503906 L 109.539062 120.503906 Z M 109.539062 122.71875 " fill-opacity="1" fill-rule="nonzero"/><path fill="#da0921" d="M 121.363281 111.648438 C 122.839844 108.328125 130.601562 109.066406 128.753906 117.554688 C 129.265625 116.957031 129.84375 116.4375 130.492188 115.996094 C 131.140625 115.554688 131.835938 115.203125 132.574219 114.945312 C 133.316406 114.6875 134.078125 114.53125 134.863281 114.476562 C 135.644531 114.421875 136.421875 114.46875 137.191406 114.617188 C 137.960938 114.769531 138.699219 115.015625 139.402344 115.363281 C 140.109375 115.707031 140.753906 116.140625 141.34375 116.65625 C 141.933594 117.171875 142.445312 117.757812 142.882812 118.410156 C 143.316406 119.0625 143.65625 119.761719 143.90625 120.503906 C 143.925781 117.726562 143.71875 114.964844 143.28125 112.21875 C 142.847656 109.476562 142.1875 106.785156 141.308594 104.148438 C 140.429688 101.511719 139.339844 98.964844 138.039062 96.507812 C 136.738281 94.050781 135.246094 91.714844 133.558594 89.503906 L 109.539062 118.660156 L 119.886719 118.660156 C 125.796875 118.660156 123.582031 112.753906 121.363281 111.648438 " fill-opacity="1" fill-rule="nonzero"/><path fill="#da0921" d="M 105.101562 120.503906 L 105.101562 136.375 C 105.101562 139.328125 103.253906 140.066406 102.515625 140.066406 C 101.777344 140.066406 100.667969 135.636719 98.820312 139.328125 C 96.972656 143.019531 98.449219 149.292969 104.734375 147.816406 C 104.246094 148.503906 103.828125 149.230469 103.480469 149.996094 C 103.132812 150.761719 102.859375 151.554688 102.660156 152.375 C 102.460938 153.191406 102.34375 154.019531 102.300781 154.863281 C 102.261719 155.703125 102.300781 156.539062 102.421875 157.375 C 102.539062 158.207031 102.738281 159.019531 103.011719 159.816406 C 103.285156 160.613281 103.632812 161.375 104.050781 162.105469 C 104.472656 162.835938 104.957031 163.519531 105.503906 164.160156 C 106.054688 164.796875 106.660156 165.378906 107.320312 165.902344 L 107.320312 120.503906 Z M 105.101562 120.503906 " fill-opacity="1" fill-rule="nonzero"/><path fill="#da0921" d="M 110.277344 59.609375 C 110.324219 59.003906 110.292969 58.402344 110.183594 57.804688 C 110.074219 57.207031 109.886719 56.632812 109.628906 56.082031 C 109.371094 55.53125 109.046875 55.023438 108.652344 54.558594 C 108.261719 54.09375 107.816406 53.6875 107.320312 53.335938 C 106.808594 53.664062 106.355469 54.058594 105.964844 54.523438 C 105.578125 54.988281 105.265625 55.503906 105.035156 56.066406 C 104.804688 56.625 104.660156 57.210938 104.609375 57.816406 C 104.558594 58.417969 104.601562 59.019531 104.734375 59.609375 C 101.039062 59.609375 97.34375 62.933594 100.296875 67.359375 C 101.777344 64.40625 104.734375 65.144531 104.734375 67.730469 L 104.734375 73.632812 L 110.277344 73.632812 L 110.277344 67.730469 C 110.277344 65.144531 112.863281 64.40625 114.710938 67.359375 C 114.824219 67.164062 114.921875 66.964844 115.007812 66.757812 C 115.097656 66.550781 115.167969 66.335938 115.226562 66.121094 C 115.285156 65.902344 115.328125 65.683594 115.359375 65.460938 C 115.390625 65.238281 115.402344 65.011719 115.40625 64.789062 C 115.40625 64.5625 115.390625 64.339844 115.363281 64.117188 C 115.332031 63.894531 115.289062 63.671875 115.234375 63.457031 C 115.175781 63.238281 115.105469 63.027344 115.019531 62.816406 C 114.933594 62.609375 114.835938 62.410156 114.722656 62.214844 C 114.609375 62.019531 114.488281 61.832031 114.351562 61.652344 C 114.214844 61.472656 114.066406 61.304688 113.910156 61.144531 C 113.75 60.984375 113.582031 60.835938 113.40625 60.695312 C 113.226562 60.558594 113.042969 60.433594 112.847656 60.320312 C 112.652344 60.207031 112.453125 60.105469 112.246094 60.019531 C 112.039062 59.929688 111.824219 59.855469 111.609375 59.796875 C 111.390625 59.738281 111.171875 59.691406 110.949219 59.660156 C 110.726562 59.628906 110.5 59.613281 110.277344 59.609375 " fill-opacity="1" fill-rule="nonzero"/><path fill="#da0921" d="M 53.367188 117.921875 C 52.757812 117.875 52.15625 117.90625 51.558594 118.015625 C 50.960938 118.125 50.382812 118.308594 49.832031 118.570312 C 49.28125 118.828125 48.773438 119.152344 48.308594 119.542969 C 47.84375 119.933594 47.433594 120.378906 47.082031 120.875 C 47.410156 121.386719 47.808594 121.835938 48.273438 122.226562 C 48.738281 122.617188 49.253906 122.925781 49.816406 123.15625 C 50.378906 123.390625 50.960938 123.53125 51.566406 123.582031 C 52.171875 123.632812 52.773438 123.589844 53.367188 123.457031 C 53.367188 127.148438 56.691406 130.839844 61.125 127.886719 C 58.171875 126.410156 58.910156 123.457031 61.496094 123.457031 L 68.148438 123.457031 L 68.148438 117.921875 L 61.496094 117.921875 C 58.910156 117.921875 58.171875 115.339844 61.125 113.492188 C 60.929688 113.382812 60.730469 113.28125 60.523438 113.195312 C 60.3125 113.109375 60.101562 113.039062 59.882812 112.980469 C 59.667969 112.921875 59.445312 112.875 59.222656 112.847656 C 59 112.816406 58.777344 112.800781 58.550781 112.800781 C 58.324219 112.800781 58.101562 112.816406 57.878906 112.84375 C 57.65625 112.871094 57.433594 112.914062 57.21875 112.972656 C 57 113.03125 56.785156 113.101562 56.578125 113.1875 C 56.371094 113.273438 56.167969 113.371094 55.972656 113.480469 C 55.777344 113.59375 55.589844 113.71875 55.410156 113.851562 C 55.230469 113.988281 55.0625 114.136719 54.902344 114.292969 C 54.742188 114.453125 54.59375 114.621094 54.453125 114.796875 C 54.316406 114.976562 54.191406 115.160156 54.074219 115.355469 C 53.960938 115.550781 53.863281 115.75 53.773438 115.957031 C 53.6875 116.164062 53.613281 116.375 53.550781 116.59375 C 53.492188 116.808594 53.445312 117.027344 53.414062 117.25 C 53.382812 117.472656 53.367188 117.699219 53.367188 117.921875 " fill-opacity="1" fill-rule="nonzero"/><path fill="#da0921" d="M 160.90625 123.457031 C 161.5 123.589844 162.097656 123.632812 162.703125 123.582031 C 163.308594 123.53125 163.894531 123.390625 164.453125 123.15625 C 165.015625 122.925781 165.53125 122.617188 165.996094 122.226562 C 166.464844 121.835938 166.859375 121.386719 167.1875 120.875 C 166.851562 120.363281 166.449219 119.90625 165.988281 119.507812 C 165.527344 119.105469 165.015625 118.777344 164.460938 118.515625 C 163.910156 118.253906 163.328125 118.074219 162.726562 117.972656 C 162.121094 117.871094 161.515625 117.855469 160.90625 117.921875 C 160.902344 117.699219 160.886719 117.472656 160.855469 117.25 C 160.824219 117.027344 160.777344 116.808594 160.71875 116.59375 C 160.660156 116.375 160.585938 116.164062 160.496094 115.957031 C 160.410156 115.75 160.308594 115.550781 160.195312 115.355469 C 160.082031 115.160156 159.953125 114.976562 159.816406 114.796875 C 159.679688 114.621094 159.53125 114.453125 159.371094 114.292969 C 159.210938 114.136719 159.039062 113.988281 158.859375 113.851562 C 158.679688 113.71875 158.492188 113.59375 158.296875 113.480469 C 158.101562 113.371094 157.902344 113.273438 157.691406 113.1875 C 157.484375 113.101562 157.273438 113.03125 157.054688 112.972656 C 156.835938 112.914062 156.617188 112.871094 156.394531 112.84375 C 156.167969 112.816406 155.945312 112.800781 155.71875 112.800781 C 155.496094 112.800781 155.269531 112.816406 155.046875 112.847656 C 154.824219 112.875 154.605469 112.921875 154.386719 112.980469 C 154.167969 113.039062 153.957031 113.109375 153.75 113.195312 C 153.539062 113.28125 153.339844 113.382812 153.144531 113.492188 C 156.101562 115.339844 155.363281 117.921875 152.773438 117.921875 L 146.125 117.921875 L 146.125 123.457031 L 152.773438 123.457031 C 155.363281 123.457031 156.101562 126.410156 153.144531 127.886719 C 157.578125 130.839844 160.90625 127.148438 160.90625 123.457031 " fill-opacity="1" fill-rule="nonzero"/><path fill="#da0921" d="M 104.734375 182.140625 C 104.601562 182.730469 104.558594 183.332031 104.609375 183.933594 C 104.660156 184.539062 104.804688 185.125 105.035156 185.683594 C 105.265625 186.246094 105.578125 186.757812 105.964844 187.226562 C 106.355469 187.691406 106.808594 188.085938 107.320312 188.414062 C 107.832031 188.078125 108.289062 187.679688 108.691406 187.214844 C 109.089844 186.753906 109.421875 186.246094 109.683594 185.691406 C 109.945312 185.140625 110.125 184.558594 110.226562 183.957031 C 110.328125 183.351562 110.34375 182.746094 110.277344 182.140625 C 110.5 182.136719 110.726562 182.121094 110.949219 182.089844 C 111.171875 182.058594 111.390625 182.011719 111.609375 181.953125 C 111.824219 181.894531 112.039062 181.820312 112.246094 181.730469 C 112.453125 181.644531 112.652344 181.542969 112.847656 181.429688 C 113.042969 181.316406 113.226562 181.191406 113.40625 181.054688 C 113.582031 180.914062 113.75 180.765625 113.910156 180.605469 C 114.066406 180.445312 114.214844 180.277344 114.351562 180.097656 C 114.488281 179.917969 114.609375 179.730469 114.722656 179.535156 C 114.835938 179.339844 114.933594 179.140625 115.019531 178.929688 C 115.105469 178.722656 115.175781 178.511719 115.234375 178.292969 C 115.289062 178.074219 115.332031 177.855469 115.363281 177.632812 C 115.390625 177.410156 115.40625 177.1875 115.40625 176.960938 C 115.402344 176.738281 115.390625 176.511719 115.359375 176.289062 C 115.328125 176.066406 115.285156 175.847656 115.226562 175.628906 C 115.167969 175.414062 115.097656 175.199219 115.007812 174.992188 C 114.921875 174.785156 114.824219 174.582031 114.710938 174.390625 C 112.863281 177.339844 110.277344 176.605469 110.277344 174.019531 L 110.277344 168.484375 L 104.734375 168.484375 L 104.734375 174.019531 C 104.734375 176.605469 101.777344 177.339844 100.296875 174.390625 C 97.34375 178.816406 101.039062 182.140625 104.734375 182.140625 " fill-opacity="1" fill-rule="nonzero"/><path fill="#da0921" d="M 107.320312 52.230469 C 108.574219 52.183594 109.820312 52.261719 111.058594 52.464844 C 112.296875 52.667969 113.503906 52.992188 114.679688 53.433594 C 115.851562 53.878906 116.972656 54.433594 118.035156 55.101562 C 119.097656 55.765625 120.082031 56.53125 120.992188 57.394531 L 122.472656 55.917969 C 121.460938 54.957031 120.367188 54.105469 119.191406 53.355469 C 118.015625 52.609375 116.777344 51.980469 115.480469 51.476562 C 114.179688 50.96875 112.84375 50.59375 111.472656 50.347656 C 110.097656 50.101562 108.714844 49.992188 107.320312 50.015625 C 104.511719 50.003906 101.800781 50.511719 99.183594 51.53125 C 96.566406 52.550781 94.226562 54.011719 92.167969 55.917969 L 94.015625 57.394531 C 95.808594 55.695312 97.855469 54.398438 100.160156 53.507812 C 102.460938 52.613281 104.847656 52.1875 107.320312 52.230469 " fill-opacity="1" fill-rule="nonzero"/><path fill="#da0921" d="M 107.320312 52.230469 C 104.847656 52.1875 102.460938 52.613281 100.160156 53.507812 C 97.855469 54.398438 95.808594 55.695312 94.015625 57.394531 L 92.167969 55.917969 C 94.226562 54.011719 96.566406 52.550781 99.183594 51.53125 C 101.800781 50.511719 104.511719 50.003906 107.320312 50.015625 C 108.714844 49.992188 110.097656 50.101562 111.472656 50.347656 C 112.84375 50.59375 114.179688 50.96875 115.480469 51.476562 C 116.777344 51.980469 118.015625 52.609375 119.191406 53.355469 C 120.367188 54.105469 121.460938 54.957031 122.472656 55.917969 L 120.992188 57.394531 C 120.082031 56.53125 119.097656 55.765625 118.035156 55.101562 C 116.972656 54.433594 115.851562 53.878906 114.679688 53.433594 C 113.503906 52.992188 112.296875 52.667969 111.058594 52.464844 C 109.820312 52.261719 108.574219 52.183594 107.320312 52.230469 " fill-opacity="1" fill-rule="nonzero"/><g clip-path="url(#67bab6ba3f)"><path fill="#da0921" d="M 139.839844 33.40625 C 139.472656 28.609375 132.449219 29.714844 129.863281 31.191406 C 128.152344 31.921875 126.363281 32.285156 124.503906 32.285156 C 122.644531 32.285156 120.859375 31.921875 119.144531 31.191406 C 108.058594 27.132812 116.929688 15.691406 122.472656 14.953125 C 128.015625 14.214844 122.472656 13.476562 120.253906 14.585938 L 117.296875 16.0625 C 120.253906 10.15625 124.6875 9.785156 126.535156 12 C 128.382812 14.214844 127.277344 14.214844 125.429688 15.691406 C 117.296875 22.703125 125.429688 25.289062 132.082031 25.289062 C 138.730469 25.289062 146.863281 30.085938 145.753906 43.003906 C 150.558594 34.144531 171.992188 30.085938 177.164062 48.167969 C 177.765625 52.496094 177.640625 56.800781 176.796875 61.085938 C 176.058594 62.933594 178.644531 65.515625 181.601562 65.882812 C 184.554688 66.253906 177.535156 67.730469 175.316406 65.144531 C 176.058594 69.207031 175.316406 74.371094 181.601562 75.847656 C 195.644531 77.324219 185.296875 88.027344 172.730469 80.648438 C 172.046875 80.277344 171.394531 79.855469 170.78125 79.378906 C 170.167969 78.898438 169.601562 78.371094 169.078125 77.796875 C 168.554688 77.21875 168.082031 76.605469 167.664062 75.949219 C 167.246094 75.292969 166.886719 74.605469 166.585938 73.890625 C 166.285156 73.171875 166.050781 72.433594 165.875 71.679688 C 165.699219 70.921875 165.589844 70.152344 165.546875 69.378906 C 165.503906 68.601562 165.527344 67.828125 165.617188 67.054688 C 165.707031 66.28125 165.859375 65.523438 166.078125 64.777344 C 152.035156 66.621094 153.144531 50.753906 156.101562 53.335938 C 159.058594 55.917969 167.1875 56.65625 168.296875 51.859375 C 155.363281 58.503906 154.992188 44.480469 159.058594 48.539062 C 163.121094 52.597656 171.992188 45.214844 164.230469 41.15625 C 167.1875 45.214844 165.710938 47.429688 163.863281 48.167969 C 162.015625 48.90625 157.578125 47.429688 159.796875 44.847656 C 162.015625 42.265625 156.839844 40.050781 153.515625 41.894531 C 150.1875 43.742188 149.820312 44.847656 146.125 51.121094 C 145.972656 50.632812 145.78125 50.164062 145.542969 49.714844 C 145.304688 49.265625 145.027344 48.839844 144.710938 48.441406 C 144.390625 48.042969 144.039062 47.675781 143.652344 47.34375 C 143.265625 47.011719 142.851562 46.71875 142.410156 46.464844 C 141.96875 46.207031 141.507812 45.996094 141.027344 45.828125 C 140.542969 45.660156 140.050781 45.539062 139.546875 45.464844 C 139.042969 45.390625 138.535156 45.363281 138.023438 45.382812 C 137.515625 45.402344 137.011719 45.472656 136.515625 45.585938 C 141.6875 38.203125 135.40625 35.988281 133.558594 38.574219 C 133.4375 38.753906 133.289062 38.90625 133.113281 39.035156 C 132.9375 39.164062 132.746094 39.257812 132.535156 39.316406 C 132.328125 39.375 132.113281 39.398438 131.898438 39.382812 C 131.679688 39.371094 131.472656 39.316406 131.273438 39.230469 C 131.078125 39.140625 130.898438 39.023438 130.742188 38.871094 C 130.585938 38.722656 130.460938 38.546875 130.363281 38.351562 C 130.269531 38.15625 130.210938 37.953125 130.1875 37.738281 C 130.164062 37.519531 130.179688 37.308594 130.234375 37.097656 C 130.234375 30.824219 136.144531 30.085938 139.839844 33.40625 " fill-opacity="1" fill-rule="nonzero"/></g><path fill="#da0921" d="M 137.253906 76.585938 L 123.582031 67.730469 C 129.816406 63.460938 135.726562 58.785156 141.320312 53.707031 C 142.058594 52.96875 141.320312 52.230469 140.578125 52.96875 L 128.753906 62.195312 L 126.167969 62.195312 L 126.167969 57.027344 C 129.941406 56.710938 133.390625 55.480469 136.515625 53.335938 C 137.992188 51.492188 132.082031 52.230469 133.929688 49.644531 C 135.777344 47.0625 147.601562 51.121094 143.535156 54.8125 C 141.378906 57.109375 139.039062 59.203125 136.515625 61.085938 C 142.308594 58.519531 147.726562 55.320312 152.773438 51.492188 C 152.710938 53.359375 152.464844 55.207031 152.035156 57.027344 C 147.230469 59.609375 142.058594 61.457031 136.882812 63.671875 C 131.710938 65.882812 136.144531 65.144531 136.882812 65.144531 C 137.839844 64.398438 138.863281 63.757812 139.953125 63.230469 C 141.046875 62.699219 142.179688 62.292969 143.359375 62.007812 C 144.539062 61.71875 145.734375 61.5625 146.949219 61.53125 C 148.164062 61.5 149.367188 61.597656 150.558594 61.824219 C 151 61.800781 151.425781 61.859375 151.84375 62.007812 C 152.261719 62.152344 152.632812 62.375 152.960938 62.667969 C 153.292969 62.960938 153.550781 63.308594 153.742188 63.703125 C 153.933594 64.101562 154.042969 64.519531 154.066406 64.960938 C 154.089844 65.402344 154.03125 65.832031 153.882812 66.246094 C 153.738281 66.664062 153.519531 67.035156 153.222656 67.363281 C 152.929688 67.691406 152.582031 67.953125 152.183594 68.144531 C 151.789062 68.335938 151.367188 68.441406 150.925781 68.46875 C 150.558594 69.574219 152.40625 69.207031 154.253906 68.46875 C 153.515625 73.265625 148.339844 71.421875 148.710938 72.160156 C 149.078125 72.898438 152.40625 72.898438 152.773438 72.527344 C 153.144531 72.160156 147.230469 75.480469 147.230469 75.847656 C 147.230469 76.21875 148.339844 76.957031 149.449219 76.957031 C 149.140625 77.324219 148.785156 77.636719 148.382812 77.898438 C 147.980469 78.15625 147.550781 78.355469 147.089844 78.484375 C 146.628906 78.617188 146.15625 78.679688 145.679688 78.667969 C 145.199219 78.660156 144.730469 78.582031 144.273438 78.433594 C 144.273438 78.433594 143.535156 78.433594 143.90625 78.800781 C 144.273438 79.292969 144.769531 79.539062 145.382812 79.539062 C 144.449219 79.828125 143.5 79.910156 142.53125 79.78125 C 141.5625 79.652344 140.664062 79.324219 139.839844 78.800781 C 139.402344 78.511719 139.054688 78.140625 138.796875 77.683594 C 138.535156 77.230469 138.390625 76.742188 138.363281 76.21875 C 138.953125 76.882812 139.691406 77.253906 140.578125 77.324219 C 139.988281 76.898438 139.542969 76.355469 139.242188 75.6875 C 138.945312 75.023438 138.835938 74.328125 138.910156 73.605469 C 138.988281 72.878906 139.242188 72.222656 139.671875 71.636719 C 140.101562 71.046875 140.652344 70.605469 141.320312 70.3125 C 141.40625 71.097656 141.777344 71.710938 142.425781 72.160156 L 142.796875 72.160156 C 142.609375 71.71875 142.511719 71.257812 142.5 70.777344 C 142.492188 70.296875 142.574219 69.832031 142.746094 69.386719 C 142.917969 68.9375 143.171875 68.539062 143.5 68.1875 C 143.828125 67.835938 144.207031 67.5625 144.644531 67.359375 C 144.273438 68.097656 144.644531 69.945312 145.382812 69.945312 L 146.125 69.945312 C 145.753906 69.207031 144.273438 65.882812 146.492188 65.515625 C 148.710938 65.144531 146.863281 67.359375 148.710938 67.359375 C 153.882812 61.457031 141.320312 61.824219 142.058594 64.40625 L 143.535156 65.144531 L 139.101562 70.3125 L 132.082031 67.359375 C 132.082031 67.730469 130.972656 68.835938 130.972656 69.207031 L 136.882812 72.160156 C 136.882812 74.003906 137.253906 75.109375 137.253906 76.585938 " fill-opacity="1" fill-rule="nonzero"/><path fill="#da0921" d="M 153.515625 107.957031 C 152.972656 103.625 151.863281 99.441406 150.1875 95.410156 L 153.515625 93.195312 L 149.078125 93.195312 C 147.558594 89.621094 145.464844 86.421875 142.796875 83.597656 C 142.796875 83.230469 147.601562 82.859375 159.796875 85.8125 C 151.667969 82.859375 151.667969 77.695312 153.515625 75.480469 C 155.363281 73.265625 162.015625 75.847656 162.015625 75.847656 C 162.015625 75.847656 162.382812 74.742188 160.90625 74.003906 C 159.425781 73.265625 156.46875 73.632812 156.839844 73.265625 C 157.164062 73 157.511719 72.773438 157.886719 72.589844 C 158.261719 72.402344 158.652344 72.257812 159.058594 72.160156 C 159.464844 72.0625 159.878906 72.011719 160.296875 72.007812 C 160.714844 72.003906 161.128906 72.042969 161.539062 72.132812 C 161.945312 72.222656 162.339844 72.355469 162.71875 72.53125 C 163.097656 72.710938 163.453125 72.929688 163.78125 73.1875 C 164.109375 73.445312 164.40625 73.734375 164.667969 74.058594 C 164.933594 74.386719 165.15625 74.734375 165.339844 75.109375 C 166.816406 78.0625 164.230469 83.597656 159.425781 80.648438 C 160.90625 77.695312 159.058594 76.585938 157.210938 76.585938 C 155.363281 76.585938 154.621094 78.800781 156.46875 80.648438 C 158.316406 82.492188 165.710938 84.707031 171.253906 85.445312 C 186.773438 87.289062 194.164062 112.386719 170.144531 114.601562 C 177.164062 110.910156 177.164062 99.101562 169.40625 98.730469 C 161.644531 98.363281 162.015625 104.636719 167.1875 106.113281 C 165.710938 104.636719 166.078125 101.316406 168.296875 101.316406 C 177.164062 100.945312 172.359375 117.554688 162.753906 111.277344 C 146.863281 99.839844 172.359375 81.753906 179.011719 100.945312 C 180.121094 90.242188 156.101562 81.386719 153.515625 107.589844 " fill-opacity="1" fill-rule="nonzero"/><path fill="#da0921" d="M 198.96875 151.136719 C 201.925781 146.710938 199.707031 139.328125 194.902344 139.328125 C 190.101562 139.328125 190.101562 146.710938 193.796875 145.972656 C 197.492188 145.234375 200.078125 147.816406 198.96875 151.136719 " fill-opacity="1" fill-rule="nonzero"/><path fill="#da0921" d="M 196.382812 130.101562 C 196.21875 129.53125 196.007812 128.976562 195.75 128.4375 C 195.496094 127.902344 195.195312 127.390625 194.855469 126.902344 C 194.511719 126.414062 194.132812 125.960938 193.714844 125.535156 C 193.296875 125.113281 192.847656 124.726562 192.363281 124.378906 C 191.882812 124.027344 191.375 123.722656 190.839844 123.457031 C 190.308594 123.195312 189.753906 122.976562 189.183594 122.800781 C 188.613281 122.628906 188.035156 122.507812 187.445312 122.429688 C 186.851562 122.355469 186.261719 122.328125 185.664062 122.351562 C 184.992188 122.308594 184.324219 122.359375 183.667969 122.507812 C 183.007812 122.652344 182.386719 122.890625 181.796875 123.21875 C 181.207031 123.546875 180.671875 123.949219 180.199219 124.429688 C 179.726562 124.910156 179.332031 125.449219 179.011719 126.042969 C 173.839844 133.792969 183.449219 141.171875 189.359375 129.734375 C 190.839844 127.519531 193.796875 128.257812 196.382812 130.101562 " fill-opacity="1" fill-rule="nonzero"/><path fill="#da0921" d="M 199.707031 138.222656 C 199.789062 137.808594 199.824219 137.390625 199.820312 136.972656 C 199.816406 136.550781 199.769531 136.136719 199.683594 135.726562 C 199.59375 135.3125 199.46875 134.917969 199.300781 134.53125 C 199.132812 134.144531 198.925781 133.78125 198.6875 133.4375 C 198.445312 133.09375 198.171875 132.777344 197.867188 132.484375 C 197.5625 132.195312 197.230469 131.941406 196.875 131.71875 C 196.515625 131.496094 196.140625 131.308594 195.75 131.160156 C 195.355469 131.011719 194.949219 130.90625 194.535156 130.839844 C 194.140625 130.648438 193.726562 130.535156 193.289062 130.503906 C 192.855469 130.476562 192.429688 130.53125 192.011719 130.667969 C 191.597656 130.808594 191.226562 131.019531 190.894531 131.304688 C 190.5625 131.589844 190.296875 131.925781 190.101562 132.316406 C 186.773438 136.375 192.316406 141.542969 195.644531 135.636719 C 198.96875 129.734375 198.597656 135.269531 199.707031 138.222656 " fill-opacity="1" fill-rule="nonzero"/><path fill="#da0921" d="M 166.078125 130.46875 C 167.925781 127.148438 170.144531 126.042969 172.359375 126.410156 C 174.578125 126.78125 174.949219 127.148438 175.6875 128.625 C 176.425781 130.101562 171.992188 134.53125 170.882812 130.839844 C 170.761719 130.636719 170.617188 130.453125 170.453125 130.285156 C 170.285156 130.117188 170.101562 129.972656 169.902344 129.847656 C 169.703125 129.726562 169.488281 129.625 169.265625 129.554688 C 169.039062 129.480469 168.8125 129.4375 168.578125 129.417969 C 168.339844 129.398438 168.105469 129.410156 167.875 129.445312 C 167.640625 129.484375 167.417969 129.550781 167.199219 129.640625 C 166.980469 129.734375 166.777344 129.847656 166.589844 129.988281 C 166.398438 130.128906 166.230469 130.289062 166.078125 130.46875 " fill-opacity="1" fill-rule="nonzero"/><path fill="#da0921" d="M 119.515625 195.058594 C 113.972656 166.269531 140.578125 174.757812 150.1875 145.601562 C 150.824219 147.609375 151.078125 149.660156 150.953125 151.761719 C 150.824219 153.859375 150.324219 155.867188 149.449219 157.78125 C 150.042969 157.390625 150.535156 156.898438 150.925781 156.304688 C 153.679688 148.644531 155.527344 140.769531 156.46875 132.683594 C 157.210938 131.578125 162.753906 130.101562 162.382812 133.054688 C 160.535156 142.648438 159.796875 147.816406 159.425781 151.136719 C 161.332031 145.714844 162.8125 140.179688 163.863281 134.53125 C 164.96875 130.101562 172.359375 130.46875 170.882812 136.007812 C 169.40625 141.542969 167.925781 142.648438 166.449219 147.078125 C 169.011719 143.4375 170.984375 139.5 172.359375 135.269531 C 173.757812 135.582031 175.109375 135.457031 176.425781 134.898438 C 177.164062 134.53125 176.796875 136.007812 176.058594 138.222656 C 174.398438 142.128906 172.058594 145.574219 169.035156 148.554688 C 171.105469 147.109375 172.902344 145.378906 174.417969 143.359375 C 175.933594 141.339844 177.097656 139.136719 177.90625 136.746094 C 179.152344 137.417969 180.480469 137.820312 181.894531 137.949219 C 183.304688 138.078125 184.6875 137.921875 186.035156 137.484375 C 183.816406 143.386719 179.011719 146.710938 173.46875 150.769531 L 169.035156 154.460938 C 176.425781 150.769531 183.449219 147.078125 187.882812 136.746094 C 188.621094 137.851562 189.359375 139.695312 190.839844 140.066406 C 190.214844 141.203125 189.871094 142.417969 189.808594 143.714844 C 189.742188 145.007812 189.964844 146.253906 190.46875 147.449219 C 186.773438 152.613281 174.949219 155.199219 169.773438 156.304688 C 171.796875 156.363281 173.804688 156.230469 175.800781 155.90625 C 177.796875 155.582031 179.746094 155.074219 181.644531 154.378906 C 183.542969 153.683594 185.359375 152.816406 187.089844 151.773438 C 188.824219 150.730469 190.441406 149.535156 191.949219 148.1875 C 194.535156 145.601562 199.707031 149.660156 197.121094 153.351562 C 194.535156 157.042969 185.664062 159.257812 170.882812 158.886719 C 170.882812 159.257812 204.882812 160.734375 207.839844 160.734375 C 210.792969 160.734375 208.207031 168.851562 203.035156 168.113281 C 196.636719 167.667969 190.351562 166.558594 184.1875 164.792969 C 181.96875 164.425781 191.578125 168.113281 200.816406 169.589844 C 200.445312 172.542969 194.164062 174.757812 188.992188 172.542969 C 183.816406 170.328125 171.992188 162.210938 167.558594 164.425781 C 170.539062 164.660156 173.25 165.644531 175.6875 167.378906 L 188.621094 175.496094 C 181.96875 185.460938 176.058594 172.914062 165.339844 167.746094 C 162.753906 166.640625 160.535156 165.902344 161.644531 166.640625 C 190.839844 181.03125 165.339844 200.960938 157.210938 183.984375 C 167.1875 188.414062 170.882812 181.03125 166.449219 174.390625 C 169.40625 184.722656 160.167969 185.460938 156.839844 181.769531 C 167.558594 176.972656 157.949219 167.007812 149.820312 166.640625 C 141.6875 166.269531 140.210938 173.652344 144.644531 176.605469 C 149.078125 179.554688 141.320312 171.804688 145.753906 169.960938 C 146.050781 169.761719 146.367188 169.59375 146.695312 169.457031 C 147.027344 169.316406 147.367188 169.207031 147.714844 169.128906 C 148.0625 169.050781 148.417969 169.003906 148.777344 168.988281 C 149.132812 168.976562 149.488281 168.996094 149.84375 169.046875 C 150.199219 169.09375 150.546875 169.175781 150.886719 169.292969 C 151.222656 169.40625 151.550781 169.546875 151.863281 169.71875 C 152.179688 169.894531 152.472656 170.09375 152.75 170.320312 C 153.027344 170.546875 153.28125 170.796875 153.515625 171.066406 C 159.425781 175.867188 153.144531 190.257812 143.535156 185.460938 C 133.929688 180.664062 133.1875 179.925781 128.015625 182.507812 C 129.34375 182.394531 130.671875 182.414062 132 182.566406 C 133.324219 182.71875 134.625 183 135.894531 183.410156 C 137.164062 183.824219 138.378906 184.355469 139.539062 185.011719 C 140.703125 185.667969 141.789062 186.433594 142.796875 187.304688 C 145.753906 190.257812 142.796875 195.796875 137.253906 191.367188 C 131.710938 186.9375 119.886719 181.03125 122.839844 191.734375 C 123.210938 193.949219 128.382812 195.425781 123.582031 197.640625 C 118.777344 199.855469 119.886719 196.902344 119.515625 195.058594 " fill-opacity="1" fill-rule="nonzero"/></svg>